<?xml version="1.0" encoding="UTF-8"?><svg xmlns="http://www.w3.org/2000/svg" viewBox="0 0 1266.55 962.32"><defs><style>.d{stroke-width:1.35px;}.d,.e,.f,.g{fill:#787878;stroke:#020202;stroke-miterlimit:10;}.f{stroke-width:1.38px;}.g{stroke-width:1.29px;}</style></defs><g id="a"/><g id="b"><g id="c"><g><path class="g" d="M326.29,124.27C203.09,200.03,53.36,233.8,17.11,302.57c-92,174.51,223.83,368.94,397.57-39.16,42.54-99.94,72.94-177.56,109.84-215.01,73.54-74.63,138.82-37.95,138.82-37.95-89.86-35.28-200.41,29.81-337.04,113.83Z"/><path class="e" d="M663.33,10.44c-14.56-5.54-30.29-8.8-46.26-8.54-15.94,.2-32.03,3.67-46.84,10.1-14.87,6.35-28.54,15.26-40.97,25.47-6.23,5.1-12.07,10.65-17.66,16.39-5.6,5.74-10.97,11.7-16,17.9-10.14,12.3-19.61,25.42-27.6,39.52-8.07,14.06-14.41,29.05-20.01,43.93-10.87,29.9-19.94,58.96-32.23,86.9-6.04,13.99-12.71,27.72-19.86,41.22-3.48,6.79-7.31,13.43-11,20.13-3.91,6.59-7.6,13.29-11.61,19.84-15.79,26.31-32.91,51.93-50.69,77.15-4.4,6.33-8.95,12.57-13.51,18.8-4.54,6.25-9.08,12.49-13.73,18.67l-13.97,18.74c-4.78,6.39-9.37,12.93-13.88,19.53-17.92,26.48-33.53,54.83-45.19,85.05-11.69,30.16-19.17,62.37-20.42,95.14-1.33,32.73,3.83,65.87,15.35,96.54,11.39,30.76,29.17,58.74,50.65,82.85,21.48,24.2,46.62,44.66,73.65,61.67,27.11,16.94,56.2,30.31,86.21,40.53,15.01,5.12,30.27,9.42,45.69,12.92,15.44,3.45,31.04,6.05,46.71,7.88,15.67,1.84,31.42,2.81,47.16,3.01,15.74,.17,31.47-.65,47.09-2.23,31.23-3.22,62.05-10.13,91.24-21.08-29.98,8.59-60.83,13.29-91.72,14.67-30.9,1.24-61.82-.73-92.16-5.8-15.17-2.56-30.19-5.84-44.98-9.93-14.81-4.01-29.4-8.73-43.68-14.24-28.56-10.96-55.86-25.02-81.05-41.95-25.2-16.88-48.28-36.84-67.53-59.83-19.25-22.96-34.63-48.92-44.55-76.77-9.9-27.85-14-57.55-12.31-87.04,1.68-29.51,8.89-58.69,19.85-86.51,11.01-27.84,25.9-54.27,42.88-79.34,4.3-6.24,8.67-12.44,13.24-18.51l14.03-18.66c4.75-6.24,9.39-12.57,13.96-18.96,4.61-6.35,9.21-12.72,13.67-19.2,36.04-51.4,69.29-105.67,93.19-164.81,5.95-14.75,11.32-29.74,16.08-44.79,4.7-15.06,8.92-30.06,13.6-44.58,4.76-14.47,10.01-28.51,16.9-41.8,6.79-13.32,14.73-26.16,23.74-38.42,4.43-6.18,9.11-12.13,14.03-17.87,4.9-5.77,10.08-11.26,15.52-16.47,10.81-10.48,22.8-19.78,36.1-26.8,13.28-6.96,27.77-11.95,42.95-13.59,7.57-.81,15.26-1,22.96-.46,7.69,.58,15.37,1.85,22.97,3.61Z"/><path class="d" d="M825.3,80.2c73.92-39.31,256.19,19.74,364.83,177.44,140.44,203.85,56.78,404.37-20.18,437.54-148.05,63.8-168.97-147.53-247.5-295.2-78.52-147.67-171.07-280.47-97.15-319.78Z"/><path class="f" d="M358.25,599.77c-8.09,27.65,28.8,98.34,94.2,117.47,65.41,19.13,134.57-20.55,142.66-48.2,8.09-27.65-38.38-65.57-103.79-84.7-65.41-19.13-124.99-12.22-133.07,15.43Z"/><circle class="f" cx="751.15" cy="457.83" r="30.35"/><circle class="f" cx="446.23" cy="417.99" r="30.35" transform="translate(-111.65 668.22) rotate(-67.29)"/></g></g></g></svg>