<svg height="512" viewBox="0 0 32 32" width="512" xmlns="http://www.w3.org/2000/svg"><g id="GPS" fill-rule="evenodd"><path d="m16 13a3 3 0 1 1 -3 3 3 3 0 0 1 3-3zm0-2a5 5 0 1 0 5 5 5 5 0 0 0 -5-5z"/><path d="m16 5a11 11 0 1 1 -11 11 11.005 11.005 0 0 1 11-11zm-1-1.962a13.011 13.011 0 0 0 -11.962 11.962h-1.038a1 1 0 0 0 0 2h1.038a13.01 13.01 0 0 0 11.962 11.962v1.038a1 1 0 0 0 2 0v-1.038a13.011 13.011 0 0 0 11.962-11.962h1.038a1 1 0 0 0 0-2h-1.038a13.01 13.01 0 0 0 -11.962-11.962v-1.038a1 1 0 0 0 -2 0z"/></g></svg>