<svg fill="none" height="512" viewBox="0 0 20 20" width="512" xmlns="http://www.w3.org/2000/svg" xmlns:xlink="http://www.w3.org/1999/xlink"><linearGradient id="paint0_linear_3139_179" gradientUnits="userSpaceOnUse" x1="10" x2="10" y1="0" y2="20"><stop offset="0" stop-color="#ee9ae5"/><stop offset="1" stop-color="#5961f9"/></linearGradient><g fill="url(#paint0_linear_3139_179)"><path clip-rule="evenodd" d="m19 16c.5523 0 1-.4477 1-1v-14c0-.552285-.4477-1-1-1h-14c-.55228 0-1 .447715-1 1v14c0 .5523.44772 1 1 1zm-12.57365-2c-.25314 0-.42622-.191-.42635-.3964.00005-.0797.02608-.1619.0835-.2356l3.04535-3.2408c.16285-.16801.4457-.16801.61712-.008l1.39713 1.4808 2.6228-3.82481c.18-.24.5571-.232.7199.016l3.462 5.60881c.1542.272-.0515.6-.3772.6zm4.57365-9c0 1.10457-.8954 2-2 2-1.10457 0-2-.89543-2-2s.89543-2 2-2c1.1046 0 2 .89543 2 2z" fill-rule="evenodd"/><path d="m0 4.5c0-.82843.671573-1.5 1.5-1.5h.5v15h15v.5c0 .8284-.6716 1.5-1.5 1.5h-14c-.828427 0-1.5-.6716-1.5-1.5z"/></g></svg>