<svg width="48" height="48" viewBox="0 0 48 48" fill="none" xmlns="http://www.w3.org/2000/svg">
<circle cx="24" cy="24" r="24" fill="#FFEB00"/>
<g clip-path="url(#clip0_47_9)">
<path d="M24 13C17.3719 13 12 17.2126 12 22.4087C12 25.7475 14.225 28.6787 17.5685 30.353L16.4376 34.5436C16.3934 34.673 16.4302 34.8096 16.5237 34.8999C16.5876 34.9634 16.6736 35 16.7695 35C16.8408 35 16.9146 34.9707 16.9785 34.9219L21.8414 31.6612C22.547 31.7613 23.2674 31.8174 24.0025 31.8174C30.6282 31.8174 36.0025 27.6048 36.0025 22.4087C36.0025 17.2126 30.6257 13 24 13Z" fill="#3C1E1E"/>
</g>
<defs>
<clipPath id="clip0_47_9">
<rect width="24" height="22" fill="white" transform="translate(12 13)"/>
</clipPath>
</defs>
</svg>
