<?xml version="1.0"?>
<svg xmlns="http://www.w3.org/2000/svg" xmlns:xlink="http://www.w3.org/1999/xlink" xmlns:svgjs="http://svgjs.com/svgjs" version="1.1" width="512px" height="512px" x="0" y="0" viewBox="0 0 468 468" style="enable-background:new 0 0 512 512" xml:space="preserve" class=""><g><g><g><g><path d="m439.717 382.165h-411.434c-11.046 0-20 8.954-20 20v45.835c0 11.046 8.954 20 20 20h411.434c11.046 0 20-8.954 20-20v-45.835c0-11.046-8.954-20-20-20z" fill="#e3edf0" data-original="#e3edf0"/></g><g><path d="m234 98.06c-96.122 0-174.044 77.922-174.044 174.044v110.06h348.088v-110.06c0-96.121-77.922-174.044-174.044-174.044z" fill="#ff9e00" data-original="#f9215f" class=""/></g><g><path d="m136.08 272.104h-28c0-69.433 56.487-125.92 125.92-125.92v28c-53.993.001-97.92 43.927-97.92 97.92z" fill="#ffffff" data-original="#ffffff" class=""/></g></g><g><g><path d="m221 0h26v52.523h-26z" fill="#738394" data-original="#738394" class=""/></g><g><path d="m66.585 63.96h26v52.523h-26z" fill="#738394" transform="matrix(.707 -.707 .707 .707 -40.487 82.701)" data-original="#738394" class=""/></g><g><path d="m362.153 77.222h52.523v26h-52.523z" fill="#738394" transform="matrix(.707 -.707 .707 .707 49.967 301.076)" data-original="#738394" class=""/></g></g></g></g></svg>
