<svg id="Capa_1" enable-background="new 0 0 512 512" height="512" viewBox="0 0 512 512" width="512" xmlns="http://www.w3.org/2000/svg"><g clip-rule="evenodd" fill-rule="evenodd"><path d="m464 480h-416c-8.832 0-16-7.168-16-16 0 0 0-13.2 0-32 0-79.536 64.464-144 144-144h160c79.536 0 144 64.464 144 144v32c0 1.055-.103 6.788-4.742 11.378-4.562 4.514-10.173 4.622-11.258 4.622zm-16-32v-16c0-61.856-50.144-112-112-112-50.832 0-109.168 0-160 0-61.856 0-112 50.144-112 112v16z"/><path d="m256 32c-61.808 0-112 50.192-112 112s50.192 112 112 112 112-50.192 112-112-50.192-112-112-112zm0 32c44.16 0 80 35.84 80 80s-35.84 80-80 80-80-35.84-80-80 35.84-80 80-80z"/></g></svg>