<?xml version="1.0" encoding="UTF-8"?>
<svg xmlns="http://www.w3.org/2000/svg" id="Icons" viewBox="0 0 60 60" width="512" height="512"><path d="M3,60H6a2,2,0,0,0,2-2V57a3.035,3.035,0,0,0-2-2.83V50.26a1.4,1.4,0,0,1,.559-1.129C9.04,47.277,13.3,43.4,13.922,38.256c.016-.116.073-.218.193-.218,2.079.135,5.016,1.273,8.415,2.591a78.563,78.563,0,0,0,10.728,3.555l.648,12.965A3,3,0,0,0,36.9,60H40a2,2,0,0,0,2-2V57a3.005,3.005,0,0,0-1.934-2.8l.668-8.436a2.222,2.222,0,0,1,1.072-1.694c4.55-2.874,5.131-6.767,5.933-12.156A65.3,65.3,0,0,1,49.81,22h3.758a5.939,5.939,0,0,0,5.515-3.65A13.535,13.535,0,0,0,60,14.131a2.05,2.05,0,0,0-.559-1.51A1.968,1.968,0,0,0,58,12H52.62L52,10.76A5.053,5.053,0,0,0,47.53,8h-.709A2.174,2.174,0,0,0,45,7a6.949,6.949,0,0,0-5.011,2.123A5.86,5.86,0,0,0,38.62,12.84a5.335,5.335,0,0,0,.055.743,36.54,36.54,0,0,1-2.246,5.281L21.039.7A2,2,0,0,0,18.221.48L16.7,1.781A2,2,0,0,0,16.478,4.6L32.071,23H10a7,7,0,0,0-1.931.277,10.5,10.5,0,0,1,.346-7.86,3.115,3.115,0,0,0,.235-1.188,3.25,3.25,0,0,0-1.822-2.9,3.149,3.149,0,0,0-2.537-.122,3.114,3.114,0,0,0-1.783,1.77c-1.322,3.428-2.915,9.853.778,15.055A6.965,6.965,0,0,0,3,30v8A13.1,13.1,0,0,1,.765,45.718,3.834,3.834,0,0,0,0,48v9A3,3,0,0,0,3,60ZM36.239,22.922c.312-.415.615-.864.913-1.331a39.385,39.385,0,0,0,9.6,4.275c-.228,1.072-.414,2.09-.576,3.065a42.814,42.814,0,0,1-11.049-4.914A5.21,5.21,0,0,0,36.239,22.922ZM41.47,10.464A4.938,4.938,0,0,1,45,9a.21.21,0,0,1,.151.347,12.188,12.188,0,0,0-2.088,6.113c-.018.231-.28.291-.462.224a2.94,2.94,0,0,1-1.98-2.844A3.824,3.824,0,0,1,41.47,10.464Zm.453,7.1a2.332,2.332,0,0,0,3.133-1.936,10.2,10.2,0,0,1,1.721-5.117A2.234,2.234,0,0,0,47.046,10h.484a3.036,3.036,0,0,1,2.685,1.655l.889,1.79A1,1,0,0,0,52,14l6,.012a11.569,11.569,0,0,1-.772,3.589A3.929,3.929,0,0,1,53.568,20H49.81a1.988,1.988,0,0,0-1.937,1.5c-.253.835-.468,1.635-.664,2.414a37.269,37.269,0,0,1-9.048-4.048,35.2,35.2,0,0,0,1.7-3.712A5.115,5.115,0,0,0,41.923,17.564ZM19.518,2,35.355,20.69c-.235.36-.473.709-.717,1.034a3.272,3.272,0,0,1-.546.568L18,3.3ZM4.372,13.7a1.17,1.17,0,0,1,1.57-.577,1.243,1.243,0,0,1,.622,1.531,12.66,12.66,0,0,0-.33,9.452,7.044,7.044,0,0,0-1.916,1.818C1.963,21.648,3.282,16.534,4.372,13.7ZM2,48a1.884,1.884,0,0,1,.382-1.1A15.125,15.125,0,0,0,5,38V30a5.006,5.006,0,0,1,5-5H32.14a5.224,5.224,0,0,0,.763-.063,43.949,43.949,0,0,0,12.962,5.986l-.1.692c-.778,5.223-1.247,8.375-5.024,10.76a4.2,4.2,0,0,0-2,3.228L38,54.921A1.009,1.009,0,0,0,39,56a1,1,0,0,1,1,1v1H36.9a1,1,0,0,1-1-.95L35,38.95a1,1,0,0,0-2,.1l.153,3.05a80.9,80.9,0,0,1-9.9-3.336c-3.554-1.377-6.623-2.567-9.01-2.722a2.212,2.212,0,0,0-2.306,1.968c-.555,4.572-4.784,8.18-6.571,9.515A3.406,3.406,0,0,0,4,50.26V55a1,1,0,0,0,1,1,1.015,1.015,0,0,1,1,1v1H3a1,1,0,0,1-1-1Z"/></svg>
