<?xml version="1.0"?>
<svg xmlns="http://www.w3.org/2000/svg" xmlns:xlink="http://www.w3.org/1999/xlink" xmlns:svgjs="http://svgjs.com/svgjs" version="1.1" width="512px" height="512px" x="0" y="0" viewBox="0 0 511.763 511.763" style="enable-background:new 0 0 512 512" xml:space="preserve"><g transform="matrix(1,0,0,1,2.842170943040401e-14,0)"><g><path d="m457.95 485.47h-2.37l-.076-60.415-10.103 53.644c8.861 7.224 7.625 17.615 7.733 18.126 0 1.048-.117 2.068-.328 3.054h11.662c1.687 0 3.054-1.367 3.054-3.054v-1.782c.001-5.288-4.285-9.573-9.572-9.573z" fill="#000000" data-original="#000000"/><path d="m417.213 339.626c1.526-2.062 2.955-3.99 4.302-5.804l-192.946-73.855c-.397 4.706-1.865 9.393-4.508 13.69-.521.847-1.079 1.656-1.665 2.435l174.02 66.611z" fill="#000000" data-original="#000000"/><g><path d="m347.37 442.674c-2.566 3.55-5.614 7.275-8.894 10.88l2.549 40.766c.195 3.122 2.783 5.558 5.91 5.558h16.512c1.687 0 3.055-1.367 3.055-3.054v-1.782c0-5.166-4.095-9.364-9.214-9.554l8.388-45.759s-9.971-1.235-14.538-1.808c-1.17 1.681-2.43 3.266-3.768 4.753z" fill="#000000" data-original="#000000"/></g><path d="m510.446 340.287-7.302-4.47c-3.046-1.865-5.382-4.653-6.848-7.909-3.534-7.846-10.538-13.735-19.09-15.767l-4.307-1.023c-2.487-.949-4.174-3.269-4.332-5.926-.134-2.256-.185-4.634-.085-6.974.11-2.593.405-5.137.981-7.409.326-1.288-.831-2.493-2.134-2.234-3.969.789-8.161 4.803-12.104 10.081-9.508 12.725-18.938 34.632-18.938 34.632l44.3 30.807c3.547 0 8.764.52 12.344 1.826 1.597.583 3.25.866 4.887.866 4.002 0 7.906-1.69 10.65-4.814 0 .001 5.833-18.235 1.978-21.686z" fill="#000000" data-original="#000000"/><path d="m424.449 351.831 36.317 25.063c1.637 1.13 3.875.754 5.053-.849l3.87-5.266c1.243-1.692.821-4.079-.927-5.241l-36.36-24.175c-1.536-1.022-3.592-.747-4.806.642l-3.827 4.378c-1.446 1.654-1.128 4.199.68 5.448z" fill="#000000" data-original="#000000"/><path d="m214.206 264.947c5.674-9.222 2.797-21.298-6.425-26.971l-61.941-38.107-15.477-44.434 20.705 34.066 61.396 37.771 23.955 6.086c10.502 2.644 21.155-3.729 23.797-14.227 2.643-10.5-3.727-21.155-14.227-23.797l-57.128-14.436-26.299-30.295.532-7.951c1.07-15.995-11.03-29.829-27.025-30.898l-51.647-3.453c-15.995-1.069-29.828 11.03-30.898 27.024l-9.656 148.61s2.793 56.228 4.157 83.663l-45.837 98.852c-5.466 11.788-.341 25.774 11.447 31.24 11.787 5.465 25.774.341 31.24-11.447l48.278-104.12c1.605-3.46 2.343-7.259 2.154-11.068l-4.185-83.96 10.606.709 26.032 77.413 9.88 113.175c1.125 12.887 12.478 22.524 25.483 21.391 12.944-1.13 22.521-12.539 21.391-25.483l-10.124-115.968c-.162-1.856-.544-3.687-1.138-5.453l-20.741-61.679.647.043 1.75-26.175c-12.978-7.984-31.921-19.638-45.955-28.272-5.006-3.08-8.066-8.225-8.771-13.632l-6.847-54.833 17.773 51.027c1.485 4.263 4.396 7.884 8.241 10.249l67.886 41.765c9.182 5.649 21.272 2.838 26.971-6.425z" fill="#000000" data-original="#000000"/><path d="m117.057 97.712c23.678 1.583 44.155-16.328 45.739-40.006 1.583-23.677-16.328-44.155-40.005-45.738s-44.155 16.328-45.738 40.005c-1.584 23.678 16.327 44.155 40.004 45.739z" fill="#000000" data-original="#000000"/><path d="m451.053 408.16c2.878-7.115 5.659-14.673 8.095-21.601-49.285-34.284-48.669-34.3-48.669-34.3s-82.815 10.85-91.921 15.462c-4.153.858-14.441 5.306-21.928 11.163-6.147 4.729-11.289 10.487-15.304 16.7-.002.003-.004.006-.006.009-4.06 6.2-7.002 12.859-9.166 19.61-2.052 6.452-3.619 14.024-4.004 20.815-.115 2.003 1.322 3.859 3.453 4.127 1.998.251 3.837-1.162 4.328-3.115l.023-.092c1.458-5.786 3.848-11.886 6.76-17.377 2.328-4.368 5.02-8.472 8.083-12.125-.676 8.139.204 11.601.746 21.623.787 12.592 2.984 47.729 4.08 65.264v.003c.195 3.126 2.784 5.552 5.916 5.552h16.506c1.687 0 3.054-1.368 3.054-3.054v-1.782c0-5.166-4.095-9.364-9.214-9.554.738-3.919 5.923-31.45 5.923-31.45 15.947-8.442 30.181-30.057 30.653-48.171.081-3.126 2.258-5.909 5.358-6.32 3.805-.505 7.053 2.442 7.053 6.147 0 7.625-1.427 14.856-3.966 21.344 17.898 2.235 55.44 6.531 55.44 6.531l3.798 60.754c.195 3.12 2.78 5.556 5.906 5.558 18.211.012 16.961.073 17.705-.242 2.187-.925 1.865-3.087 1.865-4.602-.003-5.059-4.003-9.355-9.213-9.549 0 0 0 0-.001 0l12.639-67.11c2.449-3.038 4.488-6.461 6.008-10.218z" fill="#000000" data-original="#000000"/></g></g></svg>
