<?xml version="1.0" encoding="iso-8859-1"?>
<!-- Generator: Adobe Illustrator 19.0.0, SVG Export Plug-In . SVG Version: 6.00 Build 0)  -->
<svg version="1.1" id="Capa_1" xmlns="http://www.w3.org/2000/svg" xmlns:xlink="http://www.w3.org/1999/xlink" x="0px" y="0px"
	 viewBox="0 0 512 512" style="enable-background:new 0 0 512 512;" xml:space="preserve">
<g>
	<path style="fill:#CCF2FE;" d="M64,0h384c11.782,0,21.333,9.551,21.333,21.333v469.333c0,11.782-9.551,21.333-21.333,21.333H64
		c-11.782,0-21.333-9.551-21.333-21.333V21.333C42.667,9.551,52.218,0,64,0z"/>
	<path style="fill:#B3ECFD;" d="M85.333,490.667V21.333C85.333,9.551,94.885,0,106.667,0H64C52.218,0,42.667,9.551,42.667,21.333
		v469.333C42.667,502.449,52.218,512,64,512h42.667C94.885,512,85.333,502.449,85.333,490.667z"/>
	<path style="fill:#34CDFA;" d="M362.667,0H149.333v64c0,11.782,9.551,21.333,21.333,21.333h170.667
		c11.782,0,21.333-9.551,21.333-21.333V0z"/>
	
		<linearGradient id="SVGID_1_" gradientUnits="userSpaceOnUse" x1="-36.8244" y1="633.363" x2="-32.5818" y2="637.6057" gradientTransform="matrix(21.3333 0 0 -21.3333 996.3334 13791.667)">
		<stop  offset="0" style="stop-color:#34CDFA"/>
		<stop  offset="1" style="stop-color:#E8D9F1"/>
	</linearGradient>
	<circle style="fill:url(#SVGID_1_);" cx="256" cy="234.667" r="64"/>
	
		<linearGradient id="SVGID_2_" gradientUnits="userSpaceOnUse" x1="-39.4102" y1="636.7773" x2="-37.996" y2="638.1915" gradientTransform="matrix(21.3333 0 0 -21.3333 996.3334 13791.667)">
		<stop  offset="0" style="stop-color:#34CDFA"/>
		<stop  offset="1" style="stop-color:#E8D9F1"/>
	</linearGradient>
	<circle style="fill:url(#SVGID_2_);" cx="170.667" cy="192" r="21.333"/>
	
		<linearGradient id="SVGID_3_" gradientUnits="userSpaceOnUse" x1="-37.4102" y1="638.7773" x2="-35.996" y2="640.1915" gradientTransform="matrix(21.3333 0 0 -21.3333 996.3334 13791.667)">
		<stop  offset="0" style="stop-color:#34CDFA"/>
		<stop  offset="1" style="stop-color:#E8D9F1"/>
	</linearGradient>
	<circle style="fill:url(#SVGID_3_);" cx="213.333" cy="149.333" r="21.333"/>
	
		<linearGradient id="SVGID_4_" gradientUnits="userSpaceOnUse" x1="-33.4102" y1="638.7773" x2="-31.996" y2="640.1915" gradientTransform="matrix(21.3333 0 0 -21.3333 996.3334 13791.667)">
		<stop  offset="0" style="stop-color:#34CDFA"/>
		<stop  offset="1" style="stop-color:#E8D9F1"/>
	</linearGradient>
	<circle style="fill:url(#SVGID_4_);" cx="298.667" cy="149.333" r="21.333"/>
	
		<linearGradient id="SVGID_5_" gradientUnits="userSpaceOnUse" x1="-31.4102" y1="636.7773" x2="-29.996" y2="638.1915" gradientTransform="matrix(21.3333 0 0 -21.3333 996.3334 13791.667)">
		<stop  offset="0" style="stop-color:#34CDFA"/>
		<stop  offset="1" style="stop-color:#E8D9F1"/>
	</linearGradient>
	<circle style="fill:url(#SVGID_5_);" cx="341.333" cy="192" r="21.333"/>
	<g>
		<rect x="128" y="341.333" style="fill:#99E6FD;" width="85.333" height="42.667"/>
		<rect x="170.667" y="405.333" style="fill:#99E6FD;" width="170.667" height="42.667"/>
		<rect x="256" y="341.333" style="fill:#99E6FD;" width="128" height="42.667"/>
	</g>
</g>
<g>
</g>
<g>
</g>
<g>
</g>
<g>
</g>
<g>
</g>
<g>
</g>
<g>
</g>
<g>
</g>
<g>
</g>
<g>
</g>
<g>
</g>
<g>
</g>
<g>
</g>
<g>
</g>
<g>
</g>
</svg>
