<svg height="512" viewBox="0 0 512 512" width="512" xmlns="http://www.w3.org/2000/svg"><g id="flat"><path d="m440 392 24 32v24l-16 24-16-8 8-24-16-24z" fill="#d78e0c"/><path d="m200 256 25.794 58.037a71.993 71.993 0 0 1 6.206 29.242v.521a72.02 72.02 0 0 1 -1.844 16.19l-22.156 96.01h-40l-.021-.042a52 52 0 0 1 -4.48-33.453l20.501-62.505-8-104z" fill="#5b89b9"/><path d="m176 256h-56l16 80-60.686 60.685a38.632 38.632 0 0 0 -11.314 27.315l32 24 85.02-85.02a56.058 56.058 0 0 0 14.746-26.044 56.061 56.061 0 0 0 -1.9-33.281z" fill="#6699ce"/><path d="m272.971 360a40.971 40.971 0 0 0 -28.971 12 40.971 40.971 0 0 1 -28.971 12h-15.029l4.663 7a38.188 38.188 0 0 0 31.775 17 38.186 38.186 0 0 0 21.182-6.414l14.38-9.586 24-8v-.971a23.03 23.03 0 0 0 -23.029-23.029z" fill="#ee9d0d"/><path d="m184 128 40 48 56 16-8 24h-56l-24-8z" fill="#dcdbd6"/><path d="m312.971 360h63.029l24-16 16-32h32l8 16h24v24l-16 8h-16l-8 48-24 24-9.143 56h-22.857v-56l-64-16-16 16-16 32 8 24h-32l-8-24 16-40v-23.029a40.971 40.971 0 0 1 12-28.971 40.971 40.971 0 0 1 28.971-12z" fill="#eeb436"/><path d="m296 488h32l-8-32 17.954-35.564-17.954-4.436-16 16-16 32z" fill="#d78e0c"/><g fill="#eae9e4"><path d="m104 128h80l9.825 49.123a317.994 317.994 0 0 1 6.175 62.365v16.512h-88z"/><path d="m199.62 224h-39.62l.84-1.69a67.6 67.6 0 0 0 7.16-30.31h28.43a317.752 317.752 0 0 1 3.19 32z"/><path d="m64 424-24 24 40 40 7.8-7.8a28 28 0 0 0 8.2-19.8v-12.4z"/><path d="m168 456v32h56v-6.695a28 28 0 0 0 -15.478-25.044l-.522-.261z"/></g><path d="m448 368a56.272 56.272 0 0 1 -44.8-22.4l-.444-.593a35.214 35.214 0 0 0 -14.278-11.221 138.675 138.675 0 0 1 -67.507-61.874 50.482 50.482 0 0 0 4.031-31.7l-5.157-25.787a8 8 0 0 0 -15.69 3.138l5.157 25.787a34.421 34.421 0 0 1 -1.509 18.717 34.2 34.2 0 0 1 -19.803-31.052v-12.015c0-4.418-3.582-3-8-3s-8-2.418-8 2v13.015a50.162 50.162 0 0 0 34.457 47.694 154.7 154.7 0 0 0 75.719 69.785 19.181 19.181 0 0 1 7.78 6.114l.443.592a72.349 72.349 0 0 0 57.601 28.8 8 8 0 0 0 0-16z" fill="#7a4922"/><path d="m192 56v32a16 16 0 0 1 -16 16h-8v24h-24v-40l16-32z" fill="#fdc9a6"/><path d="m128 72v-20a28 28 0 0 1 28-28h36a16 16 0 0 1 16 16 16 16 0 0 1 -16 16h-32l-16 32v24h-16z" fill="#7a4922"/><path d="m160 128-40-64-6.7 6.7a49.638 49.638 0 0 0 -9.3 57.3z" fill="#dcdbd6"/><path d="m199.62 224h-39.62l.84-1.69a67.6 67.6 0 0 0 7.16-30.31h28.43a317.752 317.752 0 0 1 3.19 32z" fill="#dcdbd6"/><path d="m129.782 170.363-17.782 29.637 40 64-24 24-50.371-60.53a38 38 0 0 1 -2.087-40.246l23.219-41.795a18.333 18.333 0 0 1 16.026-9.429 18.331 18.331 0 0 1 17.391 12.535 26.273 26.273 0 0 1 -2.396 21.828z" fill="#dcdbd6"/><path d="m312 192h-32l-8 24 24 8 16-8z" fill="#fdc9a6"/></g></svg>