<svg viewBox="-20 0 512 512.004" xmlns="http://www.w3.org/2000/svg"><path d="m107.515625 435.714844c-9.28125 0-18.769531-1.96875-28.421875-5.90625-10.335938-4.222656-15.292969-16.023438-11.070312-26.359375 4.222656-10.335938 16.019531-15.296875 26.359374-11.070313 14.265626 5.824219 29.675782 7.402344 61.140626-36.679687 6.488281-9.082031 19.113281-11.191407 28.199218-4.707031 9.085938 6.484374 11.195313 19.109374 4.710938 28.199218-17.585938 24.636719-33.324219 40.070313-49.527344 48.566406-10.121094 5.304688-20.613281 7.957032-31.390625 7.957032zm0 0" fill="#495059"/><path d="m191.90625 504.5c-13.074219 0-24.144531-10.074219-25.167969-23.328125-2.664062-34.570313-1.355469-55.839844.300781-82.773437l.101563-1.6875c.855469-13.929688 12.832031-24.539063 26.769531-23.675782 13.929688.855469 24.53125 12.839844 23.675782 26.769532l-.101563 1.695312c-1.597656 25.953125-2.746094 44.710938-.355469 75.789062 1.074219 13.914063-9.335937 26.0625-23.25 27.136719-.664062.050781-1.320312.074219-1.972656.074219zm0 0" fill="#ddaf89"/><path d="m285.847656 504.5c-.652344 0-1.308594-.023438-1.96875-.074219-13.914062-1.074219-24.328125-13.222656-23.253906-27.140625 2.394531-31.074218 1.242188-49.832031-.351562-75.789062l-.105469-1.691406c-.855469-13.929688 9.746093-25.914063 23.675781-26.769532 13.945312-.855468 25.914062 9.742188 26.769531 23.675782l.105469 1.6875c1.652344 26.929687 2.960938 48.203124.296875 82.773437-1.023437 13.253906-12.09375 23.328125-25.167969 23.328125zm0 0" fill="#ddaf89"/><path d="m99.296875 347.648438c-29.621094 0-60.980469-9.121094-80.78125-22.660157-11.519531-7.878906-14.472656-23.605469-6.59375-35.125s23.601563-14.472656 35.121094-6.59375c17.554687 12.007813 58.347656 18.886719 76.011719 9.476563 12.316406-6.558594 27.621093-1.894532 34.183593 10.425781 6.558594 12.316406 1.894531 27.621094-10.421875 34.179687-13.472656 7.179688-30.199218 10.296876-47.519531 10.296876zm0 0" fill="#a2d3ee"/><path d="m361.234375 342.824219c-8.855469 0-17.511719-1.136719-25.632813-3.554688-13.375-3.984375-20.984374-18.058593-17-31.433593 3.984376-13.375 18.054688-20.992188 31.433594-17 21.820313 6.5 58.914063-8.796876 67.273438-27.746094 5.632812-12.769532 20.550781-18.550782 33.320312-12.917969 12.769532 5.632813 18.550782 20.550781 12.917969 33.316406-15.21875 34.503907-60.914063 59.335938-102.3125 59.335938zm0 0" fill="#a2d3ee"/><path d="m310.714844 398.398438-.101563-1.6875c-.855469-13.929688-12.824219-24.53125-26.769531-23.675782-13.929688.855469-24.53125 12.839844-23.675781 26.769532l.105469 1.695312c.804687 13.113281 1.496093 24.390625 1.675781 36.347656 18.109375-2.808594 35.027343-8.867187 50.007812-17.492187-.332031-7.152344-.773437-14.328125-1.242187-21.957031zm0 0" fill="#d1a582"/><path d="m193.910156 373.035156c-13.9375-.863281-25.914062 9.746094-26.769531 23.675782l-.105469 1.6875c-.46875 7.628906-.90625 14.804687-1.238281 21.957031 14.980469 8.625 31.894531 14.679687 50.007813 17.492187.179687-11.957031.871093-23.234375 1.675781-36.351562l.101562-1.691406c.859375-13.929688-9.742187-25.914063-23.671875-26.769532zm0 0" fill="#d1a582"/><path d="m362.066406 313.882812c0-61.527343-55.15625-111.40625-123.191406-111.40625s-123.1875 49.878907-123.1875 111.40625c0 61.527344 55.152344 111.402344 123.1875 111.402344s123.191406-49.875 123.191406-111.402344zm0 0" fill="#ddaf89"/><path d="m123.054688 292.746094c-5.886719 3.140625-14.351563 4.457031-23.664063 4.386718v50.515626c17.285156-.011719 33.980469-3.132813 47.425781-10.292969 12.316406-6.5625 16.984375-21.867188 10.421875-34.183594-6.5625-12.320313-21.867187-16.984375-34.183593-10.425781zm0 0" fill="#92bfd6"/><path d="m113.730469 282.035156v127.210938c0 11.949218 9.6875 21.636718 21.640625 21.636718h66.289062c5.402344 0 9.78125-4.378906 9.78125-9.777343v-115.035157zm0 0" fill="#a2d3ee"/><path d="m378.363281 341.453125v-51.457031c-10.046875 2.65625-20.238281 3.246094-28.328125.835937-13.378906-3.988281-27.449218 3.628907-31.433594 17.003907-3.984374 13.375 3.628907 27.445312 17 31.433593 8.125 2.417969 16.777344 3.554688 25.632813 3.554688 5.660156 0 11.398437-.480469 17.128906-1.371094zm0 0" fill="#92bfd6"/><path d="m364.023438 282.035156v127.210938c0 11.949218-9.691407 21.636718-21.640626 21.636718h-66.292968c-5.398438 0-9.777344-4.378906-9.777344-9.777343v-115.035157zm0 0" fill="#a2d3ee"/><path d="m350.136719 242.351562c-30.191407 25.050782-68.964844 40.117188-111.261719 40.117188-42.292969 0-81.070312-15.066406-111.257812-40.117188-6.421876 8.3125-11.773438 17.363282-15.832032 27-5.527344 13.125-.429687 28.339844 11.855469 35.550782 33.8125 19.851562 73.191406 31.238281 115.234375 31.238281s81.421875-11.386719 115.238281-31.238281c12.28125-7.210938 17.382813-22.425782 11.851563-35.550782-4.054688-9.636718-9.410156-18.6875-15.828125-27zm0 0" fill="#7f9ae6"/><path d="m182.773438 273.238281c-20.332032-6.910156-38.976563-17.460937-55.15625-30.886719-6.421876 8.316407-11.773438 17.363282-15.832032 27-5.527344 13.128907-.429687 28.339844 11.855469 35.550782 17.582031 10.324218 36.679687 18.332031 56.863281 23.664062-7.40625-14.863281-5.308594-37.171875 2.269532-55.328125zm0 0" fill="#5e78bf"/><path d="m191.164062 95.882812c-5.171874 0-10.386718-1.574218-14.890624-4.847656l-31.21875-22.675781c-13.671876-9.929687-32.105469-9.105469-44.835938 2.007813l-20.4375 17.847656c-10.558594 9.214844-26.585938 8.128906-35.800781-2.425782-9.214844-10.558593-8.128907-26.585937 2.425781-35.800781l20.441406-17.84375c14.738282-12.871093 33.621094-20.441406 53.167969-21.316406 19.550781-.871094 39.03125 4.976563 54.863281 16.476563l31.214844 22.675781c11.339844 8.234375 13.851562 24.101562 5.617188 35.441406-4.964844 6.832031-12.703126 10.460937-20.546876 10.460937zm0 0" fill="#495059"/><path d="m286.589844 95.882812c-7.847656 0-15.585938-3.628906-20.550782-10.464843-8.234374-11.335938-5.71875-27.203125 5.617188-35.4375l31.21875-22.675781c15.832031-11.5 35.320312-17.34375 54.863281-16.476563 19.546875.875 38.425781 8.445313 53.167969 21.3125l20.4375 17.847656c10.558594 9.214844 11.644531 25.242188 2.425781 35.796875-9.214843 10.558594-25.242187 11.644532-35.796875 2.425782l-20.441406-17.84375c-12.726562-11.113282-31.164062-11.9375-44.835938-2.007813l-31.21875 22.675781c-4.5 3.273438-9.71875 4.847656-14.886718 4.847656zm0 0" fill="#495059"/><path d="m238.875 296.832031c128.800781 0 186.847656-59.003906 168.730469-142.082031-19.46875-89.277344-80.785157-138.148438-168.730469-138.148438-87.941406 0-149.257812 48.871094-168.726562 138.148438-18.117188 83.078125 39.929687 142.082031 168.726562 142.082031zm0 0" fill="#ddaf89"/><path d="m273.285156 340.480469c0 19.003906-15.40625 34.410156-34.410156 34.410156s-34.410156-15.40625-34.410156-34.410156c0-19.003907 15.40625-34.410157 34.410156-34.410157s34.410156 15.40625 34.410156 34.410157zm0 0" fill="#f6e06a"/><path d="m173.617188 184.398438c0-15.890626-16.175782-28.777344-36.132813-28.777344s-36.136719 12.886718-36.136719 28.777344c0 15.894531 16.179688 28.777343 36.136719 28.777343s36.132813-12.882812 36.132813-28.777343zm0 0" fill="#ffdbdb"/><path d="m376.402344 184.398438c0-15.890626-16.175782-28.777344-36.132813-28.777344s-36.136719 12.886718-36.136719 28.777344c0 15.894531 16.179688 28.777343 36.136719 28.777343s36.132813-12.882812 36.132813-28.777343zm0 0" fill="#ffdbdb"/><path d="m257.828125 160.613281c-12.425781-3.25-25.476563-3.25-37.902344 0-5.144531 1.347657-9.628906 4.515625-12.621093 8.910157-4.039063 5.941406-1.714844 14.089843 4.847656 17.007812l18.207031 8.09375c5.421875 2.410156 11.613281 2.410156 17.035156 0l18.203125-8.09375c6.566406-2.921875 8.886719-11.066406 4.847656-17.007812-2.988281-4.394532-7.472656-7.5625-12.617187-8.910157zm0 0" fill="#495059"/><path d="m384.601562 94.152344c-8.59375-14.621094-18.933593-27.273438-30.882812-37.875h-229.683594c-11.949218 10.601562-22.292968 23.253906-30.882812 37.875zm0 0" fill="#7f9ae6"/><path d="m299.507812 68.128906c0 33.484375-27.144531 60.632813-60.632812 60.632813-33.484375 0-60.628906-27.148438-60.628906-60.632813s27.144531-60.628906 60.628906-60.628906c33.488281 0 60.632812 27.144531 60.632812 60.628906zm0 0" fill="#dfe3e5"/><path d="m264.328125 68.128906c0 14.058594-11.394531 25.453125-25.453125 25.453125-14.054688 0-25.449219-11.394531-25.449219-25.453125 0-14.054687 11.394531-25.449218 25.449219-25.449218 14.058594 0 25.453125 11.394531 25.453125 25.449218zm0 0" fill="#cacdcf"/><path d="m332.636719 366.765625h-16.539063c-4.144531 0-7.5-3.355469-7.5-7.5 0-4.140625 3.355469-7.5 7.5-7.5h16.539063c4.140625 0 7.5 3.359375 7.5 7.5 0 4.144531-3.359375 7.5-7.5 7.5zm0 0" fill="#fff"/><path d="m61.945312 290.480469c-5.792968-2.058594-10.941406-4.503907-14.898437-7.210938-11.519531-7.878906-27.246094-4.921875-35.125 6.59375-7.878906 11.519531-4.925781 27.246094 6.59375 35.125 7.042969 4.816407 15.5625 9.058594 24.933594 12.542969zm0 0" fill="#ddaf89"/><path d="m450.628906 250.171875c-12.769531-5.632813-27.6875.148437-33.320312 12.917969-2.128906 4.832031-6.132813 9.421875-11.269532 13.476562l39.203126 32.433594c7.859374-7.605469 14.199218-16.199219 18.308593-25.511719 5.628907-12.769531-.152343-27.683593-12.921875-33.316406zm0 0" fill="#ddaf89"/><path d="m151.042969 142.933594v12.757812c0 4.144532 3.359375 7.5 7.5 7.5s7.5-3.355468 7.5-7.5v-12.757812c0-4.144532-3.359375-7.5-7.5-7.5s-7.5 3.355468-7.5 7.5zm53.058593 72.546875c-2.722656-3.121094-7.457031-3.445313-10.582031-.726563-3.121093 2.722656-3.445312 7.460938-.726562 10.582032 11.625 13.339843 28.421875 20.992187 46.082031 20.992187s34.457031-7.652344 46.082031-20.992187c2.722657-3.121094 2.394531-7.859376-.726562-10.582032-3.125-2.71875-7.859375-2.394531-10.582031.726563-7.109376 8.160156-16.777344 13.496093-27.273438 15.230469v-27.789063c1.382812-.375 2.742188-.855469 4.066406-1.441406l18.207032-8.097657c5.164062-2.296874 9.011718-6.730468 10.5625-12.167968 1.546874-5.4375.613281-11.234375-2.5625-15.90625-4.011719-5.898438-10.023438-10.144532-16.921876-11.949219-13.640624-3.574219-28.0625-3.574219-41.699218 0-6.902344 1.804687-12.910156 6.046875-16.921875 11.949219-3.179688 4.671875-4.113281 10.46875-2.5625 15.90625 1.546875 5.4375 5.398437 9.871094 10.5625 12.167968l18.207031 8.097657c1.324219.585937 2.683594 1.066406 4.0625 1.441406v27.789063c-10.496094-1.734376-20.164062-7.070313-27.273438-15.230469zm11.101563-35.800781c-1.496094-.667969-2.042969-1.898438-2.234375-2.574219s-.378906-2.011719.539062-3.363281c1.972657-2.898438 4.925782-4.984376 8.316407-5.871094 5.578125-1.460938 11.316406-2.191406 17.050781-2.191406 5.738281 0 11.476562.730468 17.050781 2.191406 3.394531.886718 6.347657 2.972656 8.316407 5.871094.921874 1.355468.734374 2.6875.542968 3.363281s-.738281 1.90625-2.234375 2.574219l-18.203125 8.09375c-3.476562 1.546874-7.464844 1.546874-10.941406 0zm23.671875-78.597657c18.171875 0 32.953125-14.78125 32.953125-32.953125 0-18.167968-14.78125-32.949218-32.953125-32.949218-18.167969 0-32.949219 14.78125-32.949219 32.949218 0 18.171875 14.78125 32.953125 32.949219 32.953125zm0-50.902343c9.898438 0 17.953125 8.050781 17.953125 17.949218 0 9.898438-8.050781 17.953125-17.953125 17.953125-9.898438 0-17.949219-8.054687-17.949219-17.953125 0-9.898437 8.050781-17.949218 17.949219-17.949218zm232.105469 211.261718c-3.164063-8.160156-9.316407-14.601562-17.324219-18.132812-16.535156-7.292969-35.917969.222656-43.210938 16.753906-1.542968 3.5-4.523437 6.980469-8.441406 10.179688-.421875.269531-.816406.582031-1.183594.9375-6.726562 5.152343-15.855468 9.476562-25.261718 11.808593.328125-4.316406-.117188-8.726562-1.414063-13.019531 9.996094-7.28125 18.449219-15.675781 25.246094-25.171875 2.410156-3.367187 1.636719-8.054687-1.730469-10.464844-3.367187-2.410156-8.054687-1.636719-10.464844 1.730469-6.679687 9.332031-15.347656 17.523438-25.90625 24.519531-.253906.140625-.496093.296875-.730468.464844-8.085938 5.273437-17.257813 9.859375-27.492188 13.714844-25.652344 9.667969-57.34375 14.566406-94.1875 14.566406-51.722656 0-92.890625-9.5625-121.222656-27.910156-.425781-.367188-.902344-.683594-1.417969-.953125-8.886719-5.941406-16.484375-12.761719-22.683593-20.457032-17.667969-21.941406-23.230469-50.867187-16.078126-83.660156 4.449219-20.40625 11.144532-38.683594 20.011719-54.695312h82.113281c11.71875 20.640625 33.890626 34.605468 59.273438 34.605468 25.386719 0 47.558594-13.964843 59.277344-34.605468h82.113281c8.867187 16.011718 15.5625 34.289062 20.011719 54.695312 4.144531 19.003906 4.089844 36.632813-.160156 52.390625-1.078126 3.996094 1.289062 8.113281 5.289062 9.191407.652344.179687 1.3125.261718 1.957031.261718 3.308594 0 6.335938-2.203125 7.238281-5.546875 4.882813-18.101562 4.992188-38.117187.332032-59.492187-4.816406-22.085938-12.1875-41.917969-21.90625-59.300782l.015625.011719c6.21875 5.429688 13.921875 8.09375 21.597656 8.09375 9.167969 0 18.292969-3.804687 24.78125-11.238281 11.921875-13.652344 10.511719-34.457031-3.140625-46.378906l-20.441406-17.847656c-16.011719-13.980469-36.527344-22.207032-57.769532-23.15625-19.664062-.882813-39.332031 4.535156-55.800781 15.292968-7.6875-2.515625-15.707031-4.527344-24.027343-6.054687-11.125-7.90625-24.707032-12.574219-39.367188-12.574219-14.65625 0-28.238281 4.667969-39.363281 12.574219-8.320313 1.527343-16.339844 3.539062-24.027344 6.058593-16.46875-10.761718-36.128906-16.175781-55.804687-15.296874-21.238282.953124-41.753907 9.175781-57.765626 23.15625l-20.441406 17.847656c-13.652344 11.921875-15.0625 32.726562-3.140625 46.382812 6.488281 7.429688 15.613281 11.234375 24.78125 11.234375 7.675781 0 15.378907-2.664062 21.601563-8.09375l.011718-.011719c-9.71875 17.382813-17.089843 37.214844-21.90625 59.300782-8.148437 37.382812-1.5625 70.667968 19.054688 96.265625 6.125 7.605469 13.402344 14.445312 21.746094 20.515625-1.976563 6.515625-1.992188 13.3125-.304688 19.640625-11.941406.492187-26.5-1.816407-38.238281-5.898438-.128906-.058593-.253906-.121093-.386719-.171875-.300781-.121094-.609375-.210937-.914062-.289062-4.832032-1.765625-9.132813-3.835938-12.496094-6.136719-14.914062-10.199219-35.34375-6.363281-45.550781 8.554687-4.941407 7.222657-6.769531 15.9375-5.15625 24.542969 1.613281 8.601563 6.484375 16.0625 13.707031 21.003907 7.457031 5.097656 16.390625 9.558593 26.15625 13.210937.089844.039063.175781.085937.265625.121094.234375.089843.46875.167969.707031.238281 17.910156 6.5625 38.511719 10.402344 57.886719 10.402344 2.320313 0 4.636719-.066406 6.9375-.175782v32.855469c-2.917969-.175781-5.78125-1.074219-9.015625-2.394531-6.855469-2.804688-14.390625-2.765625-21.214844.101562-6.824218 2.867188-12.125 8.222657-14.921875 15.074219-2.800781 6.855469-2.761719 14.390625.105469 21.214844s8.21875 12.125 15.074219 14.925781c10.507812 4.289063 21.023437 6.464844 31.257812 6.464844 8.863281 0 17.636719-1.65625 26.109375-4.890625.578125.035156 1.15625.058594 1.742188.058594h22.386718c-.125 10.398437.101563 20.523437.699219 31.304687.222657 3.996094 3.53125 7.085938 7.484375 7.085938.140625 0 .28125-.003906.421875-.011719 4.136719-.230469 7.300781-3.773437 7.070313-7.90625-.582032-10.496094-.800782-20.347656-.675782-30.472656h28.90625c2.355469 0 4.597657-.476563 6.648438-1.335938-.1875 11.125.054688 24.132813 1.339844 40.816407.75 9.769531-6.585938 18.328124-16.351563 19.082031-5.308593.402343-10.328125-1.5-14.023437-5.246094-2.910156-2.945313-7.660156-2.976563-10.609375-.070313-2.949219 2.910157-2.976563 7.660157-.070313 10.605469 6.210938 6.296875 14.488282 9.765625 23.308594 9.765625.839844 0 1.695312-.035156 2.542969-.101562 18.015625-1.386719 31.546875-17.171875 30.15625-35.1875-1.453125-18.855469-1.523438-32.851563-1.171875-44.761719 5.117187.550781 10.273437.835937 15.441406.835937s10.328125-.285156 15.441406-.835937c.351563 11.90625.28125 25.902344-1.171875 44.761719-.671875 8.726562 2.09375 17.191406 7.789063 23.839844 5.695312 6.644531 13.640625 10.679687 22.367187 11.351562.847657.0625 1.703125.097656 2.542969.097656 17 0 31.339844-13.289062 32.648438-30.253906 1.195312-15.546875 1.675781-29.230469 1.507812-43.363281h22.382812c16.066407 0 29.136719-13.070313 29.136719-29.136719v-59.414062c29.339844-2.589844 58.21875-15.886719 78.152344-34.789063.488281-.359375.941406-.777344 1.34375-1.261719.019531-.023437.035156-.050781.054687-.070312 8.34375-8.199219 15.015626-17.394532 19.339844-27.195313 3.535156-8.011719 3.738282-16.917969.570313-25.078125zm-364.078125-174.789062c4.675781-6.601563 9.792968-12.726563 15.347656-18.355469 1.53125-1.550781 3.101562-3.046875 4.691406-4.515625h43.957032c-.089844 1.4375-.152344 2.886719-.152344 4.347656 0 6.421875.910156 12.628906 2.578125 18.523438zm197.523437 0c1.667969-5.894532 2.582031-12.101563 2.582031-18.523438 0-1.460937-.0625-2.910156-.15625-4.347656h43.960938c1.589844 1.46875 3.160156 2.964844 4.6875 4.515625 5.558594 5.628906 10.671875 11.757813 15.347656 18.355469zm52.976563-68.332032c17.855468.800782 35.105468 7.714844 48.570312 19.472657l20.441406 17.84375c7.421876 6.484375 8.191407 17.796875 1.710938 25.21875-6.484375 7.421875-17.796875 8.191406-25.21875 1.710937l-20.4375-17.847656c-5.527344-4.824219-12.132812-8.148438-19.207031-9.726562-1.246094-1.203126-2.515625-2.375-3.796875-3.527344-.453125-.539063-.972656-1.011719-1.554688-1.40625-11.203125-9.816406-23.753906-17.96875-37.558594-24.339844 11.527344-5.367188 24.285157-7.964844 37.050782-7.398438zm-26.035156 30.460938h-27.175782c-1.695312-5.707031-4.105468-11.109375-7.148437-16.085938 12.386719 3.992188 23.839843 9.371094 34.324219 16.085938zm-92.492188-33.78125c29.296875 0 53.132812 23.835938 53.132812 53.128906 0 29.296875-23.835937 53.132813-53.132812 53.132813-29.292969 0-53.128906-23.835938-53.128906-53.132813 0-29.292968 23.835937-53.128906 53.128906-53.128906zm-58.164062 17.695312c-3.042969 4.976563-5.457032 10.378907-7.148438 16.085938h-27.175781c10.484375-6.714844 21.9375-12.09375 34.324219-16.085938zm-105.863282 49.867188c-7.421875 6.484375-18.738281 5.714844-25.21875-1.707031-6.480468-7.421875-5.710937-18.738281 1.710938-25.21875l20.441406-17.847657c13.460938-11.753906 30.710938-18.667968 48.570312-19.46875 12.769532-.566406 25.523438 2.03125 37.050782 7.398438-13.804688 6.371094-26.355469 14.523438-37.558594 24.339844-.582031.390625-1.101562.867187-1.554688 1.402344-1.28125 1.15625-2.550781 2.328124-3.796874 3.527343-7.074219 1.578125-13.679688 4.902344-19.203126 9.730469zm-35.621094 245.207031c-6.0625-2.652343-11.632812-5.660156-16.476562-8.972656-3.917969-2.679687-6.558594-6.726563-7.433594-11.390625-.878906-4.664062.117188-9.390625 2.792969-13.308594 5.535156-8.089844 16.613281-10.167968 24.699219-4.636718 2.75 1.878906 5.9375 3.625 9.429687 5.210937zm60.070313 12.378907c-15.339844 0-31.457031-2.605469-46.007813-7.152344l13.0625-33.226563c12.953126 3.683594 27.527344 5.480469 39.878907 4.648438v35.542969c-2.292969.125-4.609375.1875-6.933594.1875zm8.21875 88.066406c-8.277344 0-16.886719-1.800782-25.585937-5.351563-3.144532-1.285156-5.597657-3.714843-6.914063-6.847656s-1.332031-6.589844-.050781-9.734375c1.285156-3.144531 3.71875-5.601562 6.847656-6.914062 3.128906-1.316407 6.585938-1.332032 9.734375-.050782 4.246094 1.738282 9.117187 3.339844 14.683594 3.519532v6.410156c0 7.109375 2.566406 13.632812 6.8125 18.695312-1.835938.179688-3.679688.273438-5.527344.273438zm96.425781-7.109375c0 1.253906-1.023437 2.277343-2.28125 2.277343h-66.289062c-7.796875 0-14.140625-6.34375-14.140625-14.140624v-62.40625c0-.007813 0-.011719 0-.019532v-34.652344c23.582031 13.628907 49.023437 22.945313 75.75 27.738282-.003907.191406-.015625.382812-.015625.578125 0 8.539062 2.574218 16.484375 6.976562 23.113281zm-4.070312-95.921875c-25.589844-4.5625-49.929688-13.539063-72.433594-26.75-7.101562-4.167969-10.921875-12.019532-10.269531-19.859375 26.121093 14.609375 60.3125 23.167969 101.410156 25.253906-8.464844 4.707031-15.128906 12.257813-18.707031 21.355469zm58.941406 91.054687c-13.125 2.039063-26.746094 2.039063-39.871094 0v-38.902343c5.929688 3.222656 12.722656 5.054687 19.933594 5.054687s14.003906-1.832031 19.9375-5.054687zm-19.9375-48.847656c-14.835938 0-26.910156-12.074219-26.910156-26.910156 0-14.839844 12.074218-26.910157 26.910156-26.910157 14.839844 0 26.914062 12.070313 26.914062 26.910157 0 14.835937-12.074218 26.910156-26.914062 26.910156zm64.660156 113.203125c-.742187 9.660156-9.273437 17.09375-19.082031 16.351562-4.730469-.363281-9.039063-2.550781-12.125-6.152343-3.089844-3.605469-4.589844-8.195313-4.226563-12.929688 1.285157-16.683593 1.527344-29.691406 1.339844-40.8125 2.050782.855469 4.296875 1.332031 6.648438 1.332031h28.910156c.167969 13.75-.296875 27.058594-1.464844 42.210938zm52.988282-71.347656c0 7.792968-6.34375 14.136718-14.140626 14.136718h-66.292968c-1.253906 0-2.277344-1.023437-2.277344-2.277343v-57.507813c4.402344-6.632812 6.976562-14.578125 6.976562-23.117187 0-.195313-.011718-.382813-.015624-.578125 26.726562-4.792969 52.167968-14.109375 75.75-27.738282zm-6.207032-110.8125c-22.5 13.210937-46.84375 22.1875-72.433594 26.75-3.578124-9.097656-10.246093-16.652344-18.710937-21.355469 41.179687-2.078125 75.339844-10.605469 101.417969-25.195313.628906 7.820313-3.1875 15.644532-10.273438 19.800782zm21.207032 36.335937v-35.722656c11.363281-1.75 23.910156-6.367187 34.152343-13.046875l27.957031 23.132812c-16.828124 13.644532-39.445312 23.324219-62.109374 25.636719zm85.164062-54.308593c-2.832031 6.417968-6.960938 12.570312-12.078125 18.285156l-27.214844-22.515625c2.867188-3.144531 5.195313-6.527344 6.773438-10.113281 3.957031-8.964844 14.464843-13.039063 23.433593-9.085938 4.339844 1.917969 7.679688 5.410156 9.394532 9.832031 1.714844 4.425781 1.605468 9.253907-.308594 13.597657zm-144.976562-137.527344v12.757812c0 4.144532 3.355468 7.5 7.5 7.5 4.140624 0 7.5-3.355468 7.5-7.5v-12.757812c0-4.144532-3.359376-7.5-7.5-7.5-4.144532 0-7.5 3.355468-7.5 7.5zm0 0"/></svg>