<?xml version="1.0"?>
<svg xmlns="http://www.w3.org/2000/svg" xmlns:xlink="http://www.w3.org/1999/xlink" xmlns:svgjs="http://svgjs.com/svgjs" version="1.1" width="512px" height="512px" x="0" y="0" viewBox="0 0 512 512" style="enable-background:new 0 0 512 512" xml:space="preserve"><g transform="matrix(1,0,0,1,0,0)"><path d="m455.72 168.57c15.45-50.72 13.74-104.35 10.64-135.64a24.48 24.48 0 0 0 -30.45-21.33c-60.48 15.59-96.33 41.81-116.55 62.69a278.2 278.2 0 0 0 -63.36-7 278.2 278.2 0 0 0 -63.36 7c-20.22-20.88-56.07-47.1-116.55-62.69a24.48 24.48 0 0 0 -30.45 21.33c-3.1 31.29-4.81 84.92 10.64 135.64-30.61 45.93-45.28 116.76-45.28 170.96 0 48.47 80.84 161.47 245 161.47s245-113 245-161.47c0-54.2-14.67-125.03-45.28-170.96z" fill="#f29555" data-original="#f29555"/><path d="m384.51 302.62c-50.67 0-72.55 50.13-128.51 50.13s-77.84-50.13-128.51-50.13c-73.49 0-104.68 61.83-108.18 69.28 24.43 54 102.88 129.1 236.69 129.1s212.26-75.1 236.69-129.1c-3.5-7.45-34.69-69.28-108.18-69.28z" fill="#f7e3cd" data-original="#f7e3cd"/><path d="m255 463.72c-110.89 0-189.16-44.23-235.4-92.42l-.29.6c24.43 54 102.88 129.1 236.69 129.1s212.26-75.1 236.69-129.1c-.21-.46-.54-1.13-1-2-46.04 48.75-124.75 93.82-236.69 93.82z" fill="#f2c59e" data-original="#f2c59e"/><g fill="#f7e3cd"><path d="m126 97.69c-12.64-13.32-32.18-33.38-39.72-38.35-30-19.78-42.6 6-42.6 6-.65 28.85 1.51 64.71 11.51 99.49 31.5-31.26 85.73-59 85.73-59a27.69 27.69 0 0 1 -14.92-8.14z" fill="#f7e3cd" data-original="#f7e3cd"/><path d="m386 97.69c12.64-13.32 32.18-33.38 39.72-38.35 30-19.78 42.6 6 42.6 6 .65 28.85-1.51 64.71-11.51 99.49-31.5-31.26-85.73-59-85.73-59a27.69 27.69 0 0 0 14.92-8.14z" fill="#f7e3cd" data-original="#f7e3cd"/><path d="m207.7 196.6c0 10.32-10.33 18.69-23.06 18.69s-23.07-12.37-23.07-22.69 10.33-14.69 23.07-14.69 23.06 8.37 23.06 18.69z" fill="#f7e3cd" data-original="#f7e3cd"/><path d="m305.84 196.6c0 10.32 10.33 18.69 23.07 18.69s23.09-12.37 23.09-22.69-10.33-14.69-23.06-14.69-23.1 8.37-23.1 18.69z" fill="#f7e3cd" data-original="#f7e3cd"/></g><ellipse cx="257.35" cy="418.41" fill="#aa0c18" rx="22.53" ry="27.21" data-original="#aa0c18"/><path d="m173 490.38v-234.85h-33.46v223.55a279 279 0 0 0 33.46 11.3z" fill="#54c2ff" data-original="#54c2ff"/><path d="m340.59 490.38v-234.85h33.41v223.55a279.81 279.81 0 0 1 -33.41 11.3z" fill="#54c2ff" data-original="#54c2ff"/><path d="m256.77 290.43c-29.1 0-51.9 16.15-51.9 36.77 0 18.12 18 39.53 41.9 44.38v11.65c-12.76 5-22 18.9-22 35.18 0 20.51 14.59 37.2 32.53 37.2s32.53-16.69 32.53-37.2c0-16.77-9.75-31-23.11-35.61v-11.22a55.39 55.39 0 0 0 26.41-13.79c9.7-9 15.49-20.39 15.49-30.59.05-20.62-22.75-36.77-51.85-36.77zm13.11 128c0 9.32-5.73 17.2-12.53 17.2s-12.53-7.88-12.53-17.2 5.74-17.21 12.53-17.21 12.53 7.86 12.53 17.19z" fill="#000000" data-original="#000000"/><path d="m467.44 166.76c14.16-49.66 13.17-100.87 9.74-135.53a34.62 34.62 0 0 0 -43.07-30.13c-60 15.46-96.71 41.3-117.7 61.64a303.15 303.15 0 0 0 -120.82 0c-21-20.34-57.7-46.18-117.7-61.64a34.62 34.62 0 0 0 -43.07 30.13c-3.43 34.66-4.42 85.87 9.74 135.53-32.82 52.01-44.56 125.3-44.56 173.16 0 26.08 20 69.26 64.75 106.93 35.3 29.72 97.13 65.15 191.25 65.15s156-35.43 191.25-65.15c44.75-37.67 64.75-80.85 64.75-106.93 0-47.86-11.74-121.15-44.56-173.16zm-28.32-146.23a14.31 14.31 0 0 1 11.88 2.16 14.57 14.57 0 0 1 6.16 10.52c.29 2.94.57 6.2.83 9.71-.6-.2-1.19-.4-1.82-.57-10.93-3-22.83-.26-35.36 8-6.53 4.3-20.53 17.74-41.62 39.95a17.56 17.56 0 0 1 -19.19 4.32c-9.18-3.61-20.71-9.73-27.74-19.25 19.42-18.26 52.74-40.9 106.86-54.84zm-384.32 12.68a14.57 14.57 0 0 1 6.2-10.52 14.3 14.3 0 0 1 8.24-2.63 15 15 0 0 1 3.68.47c54.08 13.94 87.4 36.58 106.83 54.84-7 9.52-18.56 15.64-27.74 19.25a17.58 17.58 0 0 1 -19.24-4.32c-21.09-22.21-35.09-35.65-41.62-39.95-12.53-8.26-24.43-11-35.36-8-.63.17-1.22.37-1.82.57.26-3.51.54-6.77.83-9.71zm108.2 444.85q-6.93-2.22-13.41-4.69v-207.84h13.41zm201-5.28q-6.5 2.5-13.42 4.77v-212h13.42zm70.3-41.28a243.55 243.55 0 0 1 -50.3 32.56v-198.53h3.77a10 10 0 1 0 0-20h-61a10 10 0 0 0 0 20h3.77v217.73a312.5 312.5 0 0 1 -74.54 8.67 313.21 313.21 0 0 1 -73.05-8.3v-218.1h3.77a10 10 0 1 0 0-20h-61a10 10 0 0 0 0 20h3.78v199.29a244.31 244.31 0 0 1 -51.81-33.32c-37.82-31.85-57.61-70.18-57.61-91.58 0-49.81 13.46-120.26 43.53-165.63a156.77 156.77 0 0 1 23.8-22.77 10 10 0 1 0 -12-16.05 157 157 0 0 0 -14.81 12.75c-6.49-28.53-8-57.12-7.69-80.53a15.56 15.56 0 0 1 8.28-6c5.12-1.32 11.49.5 19 5.42 5 3.27 19.2 17.1 38.12 37a37.54 37.54 0 0 0 41.14 9.18c13.16-5.18 30.17-14.62 39.71-30.75a281.35 281.35 0 0 1 113.86 0c9.54 16.13 26.55 25.57 39.71 30.75a37.54 37.54 0 0 0 41.14-9.18c18.92-19.91 33.17-33.74 38.12-37 7.47-4.92 13.85-6.74 19-5.42a15.58 15.58 0 0 1 8.28 6c.36 23.4-1.2 52-7.69 80.53a157 157 0 0 0 -14.81-12.75 10 10 0 1 0 -12.05 16.05 156.64 156.64 0 0 1 23.8 22.78c30.07 45.36 43.53 115.81 43.53 165.62-.13 21.4-19.92 59.73-57.74 91.58z" fill="#000000" data-original="#000000"/></g></svg>
