<?xml version="1.0"?>
<svg xmlns="http://www.w3.org/2000/svg" xmlns:xlink="http://www.w3.org/1999/xlink" xmlns:svgjs="http://svgjs.com/svgjs" version="1.1" width="512px" height="512px" x="0" y="0" viewBox="0 0 122.012 125.983" style="enable-background:new 0 0 512 512" xml:space="preserve"><g transform="matrix(0.6799999999999999,0,0,0.68,19.52196075439452,20.15738586425781)"><g><g><g id="XMLID_60_"><g><g><path d="m113.242 115.943c-1.7-2.44-3.43-4.95-4.59-7.93-3.14-8.06.57-12.79.09-24.54-.11-2.69-.47-6.55-1.65-11.22-.2-.8-.37-1.62-.49-2.44-2.82-20.22-5.8-30.35-8.91-30.4-2.74-.04-5.58 7.67-8.54 23.11-1.7-15.63-3.91-23.36-6.64-23.54-3.07-.21-6.79 9.41-11.16 28.83h.01c-.07.08-.12.17-.18.26-2.95 4.61 1.02 7.95-2.34 14.74-1.68 3.39-3.56 4.58-3.94 8.3-.12 1.2-.37 4.13 1.5 6.63.81 1.09 1.82 1.82 2.8 2.32 1.3.65 2.56.9 3.29 1.04l.11 6.98.06.04c-.64 1.03-1.07 2.19-1.25 3.44h-3.57c-1.58-6.08-3.83-10.72-5.61-13.84-2.06-3.61-5.99-10.34-13.13-15.69 1.26-2.23 2.58-5.08 4.02-8.81 2.46-6.39 4.41-13.08 5.8-19.94.07-.33.05-.66-.05-.96.83-.78 1.51-1.8 1.95-3 1.32-3.59-.01-7.46-2.96-8.64-.29-.12-.59-.2-.88-.25 1.11-2.34 2.91-6.99 2.39-12.83-.19-2.24-.6-6.8-3.9-10.77-.74-.88-1.45-1.53-1.96-1.95 1.96.32 3.91.65 5.86.98-.88-1.28-11.82-16.65-25.4-14.69-1.69.24-3.69.8-5.86 1.96-1.83-.3-3.46-.25-4.88 0-13.91 2.39-19.22 25-19.54 26.43l5.92-4.89c-.81 1.86-1.86 4.92-2.01 8.81-.11 2.89.95 5.17 1.42 6.95h-.01c-.3.05-.58.13-.87.25-2.96 1.18-4.28 5.05-2.96 8.64.43 1.17 1.08 2.16 1.87 2.93l.04.01c-.11.32-.14.67-.07 1.02 1.39 6.86 3.34 13.55 5.81 19.94 1.48 3.82 2.82 6.72 4.11 8.98-3.8 2.86-7.9 6.97-11.06 12.75-6.59 12.05-4.79 23.53-4.18 26.75.64-.44 1.47-.96 2.46-1.48l1.43 4.76h23.08 17.34 23.78 51.22c-2.13-2.01-4.98-5-7.77-9.04zm-86.1-39.38c-1.19.45-3.75 1.47-6.83 3.35-1.13-2.02-2.34-4.64-3.69-8.14-2.37-6.14-4.24-12.58-5.59-19.17-.02-.12-.06-.24-.1-.35l.2-.06c.67 2.34 1.46 4.31 2.33 5.77 2.26 3.77 7.41 8.7 13.68 10.77zm18.57 3.21c-.73-.44-1.5-.86-2.29-1.26-1.86-.94-3.47-1.57-4.56-1.95v-7.83c6.27-2.07 11.42-7 13.68-10.77.82-1.38 1.57-3.22 2.22-5.4l.15.04c-1.34 6.59-3.22 13.03-5.59 19.17-1.32 3.42-2.5 6-3.61 8z" fill="#ffd7d2" data-original="#ffd7d2"/></g><g><path d="m85.992 62.363c-.22 0-.44 0-.67.01-1.54.06-4.89.2-8.08 1.31 1.44-11.45 2.9-17.18 4.38-17.19 1.44 0 2.89 5.29 4.37 15.87z" fill="#f7b6ad" data-original="#f7b6ad"/></g><g><path d="m97.972 46.973c1.59.14 2.62 6.89 3.09 20.26-1.44-1.03-4.56-3.05-8.87-4.14 2.39-10.87 4.32-16.24 5.78-16.12z" fill="#f7b6ad" data-original="#f7b6ad"/></g><g><path d="m68.572 87.483c1.6 0 2.9 1.29 2.9 2.89s-1.3 2.89-2.9 2.89-2.91-1.29-2.91-2.89 1.31-2.89 2.91-2.89z" fill="#604533" data-original="#604533"/></g><g><ellipse cx="90.752" cy="76.563" fill="#604533" rx="2.95" ry="2.94" data-original="#604533"/></g><g><ellipse cx="73.482" cy="76.563" fill="#604533" rx="2.95" ry="2.94" data-original="#604533"/></g><g><path d="m89.152 62.523c-1.01-.12-2.06-.18-3.16-.16-1.48-10.58-2.93-15.87-4.37-15.87-1.48.01-2.94 5.74-4.38 17.19-2.27.78-4.46 2.05-5.88 4.13h-.01c4.37-19.42 8.09-29.04 11.16-28.83 2.73.18 4.94 7.91 6.64 23.54z" fill="#efcfb1" data-original="#efcfb1"/></g><g><path d="m68.572 93.263c1.6 0 2.9-1.29 2.9-2.89s-1.3-2.89-2.9-2.89-2.91 1.29-2.91 2.89 1.31 2.89 2.91 2.89zm1.96-16.7c0 1.62 1.32 2.94 2.95 2.94s2.95-1.32 2.95-2.94-1.32-2.94-2.95-2.94-2.95 1.32-2.95 2.94zm21.66-13.47c4.31 1.09 7.43 3.11 8.87 4.14-.47-13.37-1.5-20.12-3.09-20.26-1.46-.12-3.39 5.25-5.78 16.12zm-3.04-.57c2.96-15.44 5.8-23.15 8.54-23.11 3.11.05 6.09 10.18 8.91 30.4.12.82.29 1.64.49 2.44 1.18 4.67 1.54 8.53 1.65 11.22.48 11.75-3.23 16.48-.09 24.54 1.16 2.98 2.89 5.49 4.59 7.93 2.79 4.04 5.64 7.03 7.77 9.04h-51.22c.07-.24.11-.5.11-.76 0-1.4-1.13-2.53-2.54-2.53.71 0 1.34-.29 1.8-.74.46-.46.74-1.09.74-1.79 0-1.4-1.13-2.54-2.54-2.54h4.73c1.44 3.25 4.7 5.52 8.48 5.52 5.12 0 9.27-4.14 9.27-9.23 0-5.1-4.15-9.23-9.27-9.23-3.35 0-6.29 1.78-7.91 4.44l-.06-.04-.11-6.98c-.73-.14-1.99-.39-3.29-1.04-.98-.5-1.99-1.23-2.8-2.32-1.87-2.5-1.62-5.43-1.5-6.63.38-3.72 2.26-4.91 3.94-8.3 3.36-6.79-.61-10.13 2.34-14.74.06-.09.11-.18.18-.26 1.42-2.08 3.61-3.35 5.88-4.13 3.19-1.11 6.54-1.25 8.08-1.31.23-.01.45-.01.67-.01 1.1-.02 2.15.04 3.16.16zm4.55 14.04c0-1.62-1.32-2.94-2.95-2.94-1.62 0-2.95 1.32-2.95 2.94s1.33 2.94 2.95 2.94c1.63 0 2.95-1.32 2.95-2.94z" fill="#f4d9c1" data-original="#f4d9c1"/></g><g><path d="m80.572 107.683c2.9 0 5.25 2.34 5.25 5.23 0 2.88-2.35 5.22-5.25 5.22-1.57 0-2.98-.69-3.94-1.78.83-.41 1.4-1.27 1.4-2.26 0-.7-.28-1.33-.74-1.79s-1.09-.73-1.78-.74c.59-2.23 2.63-3.88 5.06-3.88z" fill="#d2d2d1" data-original="#d2d2d1"/></g><g><path d="m51.652 117.143c.72.21 1.36.37 1.88.48l-3.22 3.16c-1.94-.39-9.17-2.08-14.42-8.87-4.21-5.46-4.82-11.18-4.93-13.38h4.02c.41 2.16 1.95 8.64 7.85 13.76 3.15 2.74 6.44 4.13 8.82 4.85z" fill="#d2d2d1" data-original="#d2d2d1"/></g><g><path d="m89.842 112.913c0 5.09-4.15 9.23-9.27 9.23-3.78 0-7.04-2.27-8.48-5.52h3.4c.41 0 .8-.1 1.14-.27.96 1.09 2.37 1.78 3.94 1.78 2.9 0 5.25-2.34 5.25-5.22 0-2.89-2.35-5.23-5.25-5.23-2.43 0-4.47 1.65-5.06 3.88-.01 0-.01 0-.02 0h-4.08c.18-1.25.61-2.41 1.25-3.44 1.62-2.66 4.56-4.44 7.91-4.44 5.12 0 9.27 4.13 9.27 9.23z" fill="#9c9d9c" data-original="#9c9d9c"/></g><g><path d="m58.872 52.323c.1.3.12.63.05.96-1.39 6.86-3.34 13.55-5.8 19.94-1.44 3.73-2.76 6.58-4.02 8.81-2.21 3.9-4.25 5.91-6.52 7.46-1.82 1.25-3.85 2.21-6.03 2.89v6.15h-1.57-4.02-1.56v-6.15c-2.18-.68-4.21-1.64-6.04-2.89-2.23-1.53-4.25-3.51-6.42-7.29-1.29-2.26-2.63-5.16-4.11-8.98-2.47-6.39-4.42-13.08-5.81-19.94-.07-.35-.04-.7.07-1.02.24-.74.91-1.31 1.76-1.39.93-.09 1.75.52 2.08 1.38.04.11.08.23.1.35 1.35 6.59 3.22 13.03 5.59 19.17 1.35 3.5 2.56 6.12 3.69 8.14 1.87 3.32 3.54 5 5.36 6.24.02.02.04.03.06.04 4.34 2.94 10.15 2.94 14.49 0 .02-.01.04-.02.06-.04 1.85-1.26 3.54-2.97 5.43-6.38 1.11-2 2.29-4.58 3.61-8 2.37-6.14 4.25-12.58 5.59-19.17.21-1.03 1.14-1.83 2.19-1.73.88.08 1.55.68 1.77 1.45z" fill="#9c9d9c" data-original="#9c9d9c"/></g><g><path d="m45.712 79.773c-1.89 3.41-3.58 5.12-5.43 6.38-.02.02-.04.03-.06.04-4.34 2.94-10.15 2.94-14.49 0-.02-.01-.04-.02-.06-.04-1.82-1.24-3.49-2.92-5.36-6.24 3.08-1.88 5.64-2.9 6.83-3.35-.63 5.05 2.94 8.81 5.86 8.81s6.49-3.76 5.86-8.81c1.09.38 2.7 1.01 4.56 1.95.79.4 1.56.82 2.29 1.26z" fill="#c2e6f9" data-original="#c2e6f9"/></g><g><path d="m23.062 118.273c-2.21-.64-6.54-1.56-11.82-.55-2.89.56-5.27 1.53-7.08 2.5-.99.52-1.82 1.04-2.46 1.48-.61-3.22-2.41-14.7 4.18-26.75 3.16-5.78 7.26-9.89 11.06-12.75 2.17 3.78 4.19 5.76 6.42 7.29 1.83 1.25 3.86 2.21 6.04 2.89v6.15h1.56c.11 2.2.72 7.92 4.93 13.38 5.25 6.79 12.48 8.48 14.42 8.87l-4.3 4.2h-17.34c-2.76-2.35-4.5-4.66-5.61-6.71z" fill="#c2e6f9" data-original="#c2e6f9"/></g><g><path d="m51.652 117.143c-2.38-.72-5.67-2.11-8.82-4.85-5.9-5.12-7.44-11.6-7.85-13.76h1.57v-6.15c2.18-.68 4.21-1.64 6.03-2.89 2.27-1.55 4.31-3.56 6.52-7.46 7.14 5.35 11.07 12.08 13.13 15.69 1.78 3.12 4.03 7.76 5.61 13.84h-3.88c-2.7 0-5.3 1.06-7.24 2.95l-3.19 3.11c-.52-.11-1.16-.27-1.88-.48z" fill="#c2e6f9" data-original="#c2e6f9"/></g><g><path d="m56.982 40.433c-3.61-2.35-7.9-5.56-12.26-9.89-3.99-3.96-7.03-7.86-9.31-11.21 0 0 .33 3.41.66 6.82.32 3.42.65 6.85.65 6.88-.03 0-3.53-4.02-5.68-7.38-1.34-2.12-3.03-5.36-4.11-9.94-1.81 3.8-4.27 8.23-7.61 12.87-3.52 4.92-7.14 8.83-10.3 11.85-.47-1.78-1.53-4.06-1.42-6.95.15-3.89 1.2-6.95 2.01-8.81l-5.92 4.89c.32-1.43 5.63-24.04 19.54-26.43 1.42-.25 3.05-.3 4.88 0 2.17-1.16 4.17-1.72 5.86-1.96 13.58-1.96 24.52 13.41 25.4 14.69-1.95-.33-3.9-.66-5.86-.98.51.42 1.22 1.07 1.96 1.95 3.3 3.97 3.71 8.53 3.9 10.77.52 5.84-1.28 10.49-2.39 12.83z" fill="#604533" data-original="#604533"/></g><g><path d="m9.012 40.433c.43 4.37 1.16 8.43 2.12 11.76l-.2.06c-.33-.86-1.15-1.47-2.08-1.38-.85.08-1.52.65-1.76 1.39l-.04-.01c-.79-.77-1.44-1.76-1.87-2.93-1.32-3.59 0-7.46 2.96-8.64.29-.12.57-.2.87-.25z" fill="#fec4b9" data-original="#fec4b9"/></g><g><path d="m57.862 40.683c2.95 1.18 4.28 5.05 2.96 8.64-.44 1.2-1.12 2.22-1.95 3-.22-.77-.89-1.37-1.77-1.45-1.05-.1-1.98.7-2.19 1.73l-.15-.04c1.01-3.4 1.78-7.6 2.22-12.13.29.05.59.13.88.25z" fill="#fec4b9" data-original="#fec4b9"/></g><g><path d="m38.862 76.563c.63 5.05-2.94 8.81-5.86 8.81s-6.49-3.76-5.86-8.81v-7.83c1.87.62 3.84.98 5.86.98s3.99-.36 5.86-.98z" fill="#fec4b9" data-original="#fec4b9"/></g></g><g><g><path d="m31.012 120.983c-4-3-6-8-6-16 0-6.089-4.987-10.214-7.37-11.837-.698-.475-1.632-.38-2.23.217-.706.706-.678 1.844.045 2.533 1.08 1.028 2.252 2.399 3.215 4.167 2.93 5.37 1.21 9.43 3.04 15.08.31.94.73 2 1.35 3.13 1.11 2.05 2.85 4.36 5.61 6.71h.34 7s-1-1-5-4z" fill="#8ecaef" data-original="#8ecaef"/></g></g></g></g><g fill="#3a322b"><path d="m25.126 31.058c-.136-.024-3.376-.571-5.822 1.156-.451.318-.559.942-.239 1.394.194.275.503.423.817.423.199 0 .4-.06.576-.184 1.751-1.234 4.285-.826 4.323-.819.542.091 1.061-.269 1.155-.812.097-.544-.266-1.062-.81-1.158z" fill="#3a322b" data-original="#3a322b"/><path d="m42.158 44.417c1.094 0 1.981-.892 1.981-1.993s-.887-1.993-1.981-1.993-1.981.892-1.981 1.993.887 1.993 1.981 1.993z" fill="#3a322b" data-original="#3a322b"/><path d="m23.817 40.431c-1.094 0-1.981.892-1.981 1.993s.887 1.993 1.981 1.993 1.981-.892 1.981-1.993c0-1.1-.887-1.993-1.981-1.993z" fill="#3a322b" data-original="#3a322b"/><path d="m32.956 47.513c-.006 0-.013 0-.019 0-2.465 0-4.196-1.652-4.211-1.666-.392-.388-1.024-.384-1.414.01-.388.393-.384 1.025.01 1.414.093.092 2.309 2.242 5.666 2.242.01.001.02.001.025 0 3.305 0 5.522-2.15 5.615-2.242.393-.387.396-1.016.011-1.409-.385-.394-1.018-.4-1.412-.018-.017.017-1.75 1.669-4.271 1.669z" fill="#3a322b" data-original="#3a322b"/><path d="m121.697 124.254c-2.848-2.684-5.417-5.67-7.638-8.876-1.652-2.385-3.361-4.851-4.48-7.726-1.741-4.474-1.249-7.931-.627-12.308.464-3.259.989-6.953.788-11.917-.153-3.774-.719-7.615-1.68-11.414-.214-.848-.366-1.611-.468-2.336-3.839-27.477-7.154-31.221-9.891-31.26-.016 0-.03 0-.045 0-2.178 0-4.834 2.343-8.251 17.906-2.155-15.746-4.636-18.198-6.824-18.342-2.7-.149-6.248 3.184-12.173 29.449-.023.035-.051.065-.073.1-1.598 2.5-1.393 4.739-1.194 6.904.209 2.287.426 4.651-1.2 7.937-.546 1.103-1.114 1.959-1.663 2.787-1.079 1.625-2.098 3.161-2.37 5.855-.111 1.104-.45 4.463 1.693 7.332.889 1.19 1.972 1.982 3.028 2.534.045.031.097.049.146.073 1.019.512 1.988.802 2.727.969l.095 6.045c-.45.804-.792 1.676-1.01 2.597h-1.985c-1.289-4.694-3.133-9.178-5.499-13.332-1.861-3.268-5.682-9.955-12.72-15.46 1.161-2.154 2.367-4.816 3.669-8.187 2.485-6.434 4.454-13.197 5.853-20.103.056-.277.058-.556.036-.833.776-.842 1.406-1.854 1.819-2.979 1.483-4.043-.047-8.426-3.406-9.86 1.265-2.973 2.466-7.257 2.02-12.293-.202-2.277-.619-6.982-3.993-11.146l2.832.474c.397.062.794-.111 1.01-.451.215-.339.206-.774-.022-1.104-1.22-1.76-12.322-17.119-26.365-15.107-2.011.29-3.992.932-5.893 1.91-1.663-.235-3.303-.221-4.881.053-14.682 2.527-20.123 26.197-20.346 27.203-.094.417.089.848.453 1.07s.829.19 1.159-.082l3.148-2.602c-.508 1.859-.802 3.769-.876 5.709-.092 2.367.54 4.33 1.047 5.908.046.142.078.263.121.4-3.447 1.377-5.03 5.825-3.528 9.918.405 1.102 1.02 2.1 1.776 2.933-.029.292-.03.586.029.878 1.4 6.908 3.37 13.672 5.854 20.104 1.337 3.463 2.573 6.173 3.763 8.358-4.412 3.465-8.001 7.671-10.657 12.53-6.143 11.239-5.32 22.001-4.283 27.416.063.331.29.607.602.736.122.05.252.075.381.075.198 0 .396-.059.564-.175.424-.289.857-.56 1.294-.82l1.076 3.565c.13.433.527.711.957.711.096 0 .192-.014.289-.043.528-.159.828-.718.668-1.246l-1.196-3.96c1.921-.938 3.951-1.618 6.071-2.024 3.619-.696 7.41-.538 10.988.431 1.353 2.362 3.222 4.575 5.613 6.606.188.159.418.237.647.237.283 0 .564-.12.763-.353.357-.421.306-1.053-.115-1.41-3.312-2.812-5.554-5.97-6.661-9.388-.749-2.311-.876-4.389-.998-6.397-.167-2.752-.341-5.599-2.114-8.851-1.169-2.142-2.803-4.049-4.855-5.669-.432-.341-1.062-.267-1.404.166s-.268 1.062.166 1.404c1.839 1.452 3.299 3.153 4.338 5.057 1.561 2.86 1.713 5.364 1.874 8.015.13 2.134.264 4.34 1.092 6.893.149.461.318.916.504 1.368-3.368-.68-6.858-.714-10.214-.073-2.56.491-4.993 1.368-7.281 2.573-.09.039-.181.077-.253.138-.36.195-.726.374-1.078.586-.715-4.891-1.121-14.649 4.322-24.608 2.479-4.538 5.818-8.476 9.913-11.739 2.038 3.303 3.983 5.157 6.128 6.626 1.678 1.148 3.559 2.085 5.6 2.788v5.428c0 .553.447 1 1 1h.631c.289 3.096 1.361 8.188 5.067 12.986 4.258 5.513 9.839 7.846 13.221 8.805l-3.009 2.941c-.395.386-.402 1.019-.016 1.414.195.2.455.301.715.301.252 0 .505-.095.699-.285l10.715-10.471c1.756-1.716 4.079-2.661 6.541-2.661h11.528c.85 0 1.541.687 1.541 1.531s-.691 1.531-1.541 1.531h-8.13-2.541-1.492c-.553 0-1 .447-1 1s.447 1 1 1h1.492 2.541c.85 0 1.541.687 1.541 1.531s-.691 1.532-1.541 1.532h-5.59c-.553 0-1 .447-1 1s.447 1 1 1h5.59c.85 0 1.541.687 1.541 1.531 0 .157-.023.313-.07.46-.167.526.124 1.088.651 1.255.1.032.202.047.302.047.425 0 .818-.271.953-.698.109-.343.164-.7.164-1.063 0-.994-.417-1.889-1.082-2.531.665-.643 1.082-1.538 1.082-2.532 0-.551-.138-1.066-.365-1.531h.958c1.761 3.36 5.24 5.513 9.078 5.513 4.138 0 7.703-2.459 9.325-5.983 1.962-1.251 3.625-2.813 4.932-4.658.401-.568.77-1.162 1.101-1.778l.677 1.533c.151.343.482.572.856.594.366.023.729-.167.92-.489 1.038-1.759 1.777-3.662 2.194-5.655.469-2.243.521-4.53.152-6.8-.089-.545-.593-.918-1.147-.827-.545.089-.915.603-.827 1.147.329 2.026.283 4.068-.135 6.069-.233 1.113-.579 2.194-1.031 3.232l-.728-1.648c-.164-.37-.545-.598-.941-.596-.406.011-.765.266-.908.646-.463 1.22-1.074 2.369-1.815 3.416-.693.979-1.511 1.86-2.421 2.657.038-.358.06-.721.06-1.089 0-5.64-4.604-10.229-10.263-10.229-2.682 0-5.163 1.063-7.017 2.798l-.051-3.229c.263.022.522.039.771.039 1.705 0 3.175-.491 5.495-1.268 1.289-.432 2.892-.968 4.981-1.566 2.753-.788 4.764-1.208 6.38-1.545 2.899-.604 4.649-.969 6.891-2.737 1.78-1.405 3.253-3.199 4.388-5.345l1.88 1.124c.276.164.614.186.909.06.295-.128.511-.39.58-.703.281-1.277.281-2.621 0-3.885-.466-2.093-1.573-3.552-2.421-4.406-.388-.393-1.021-.395-1.414-.006s-.395 1.021-.006 1.414c.661.668 1.526 1.805 1.888 3.432.115.517.17 1.051.164 1.585l-1.483-.887c-.244-.146-.539-.182-.81-.097-.271.084-.494.28-.613.538-1.055 2.301-2.502 4.187-4.3 5.605-1.872 1.477-3.271 1.769-6.061 2.35-1.648.344-3.699.771-6.522 1.581-2.132.61-3.758 1.154-5.064 1.592-3.001 1.003-4.245 1.417-6.464 1-.586-.111-1.58-.305-2.636-.774-.29-.915-.497-1.856-.582-2.812-.07-.797-.043-1.598.033-2.393 1.708-.416 2.983-1.944 2.983-3.772 0-2.146-1.751-3.893-3.904-3.893-.286 0-.563.035-.831.093.068-.103.135-.205.205-.311.557-.839 1.188-1.789 1.79-3.006.66-1.334 1.046-2.536 1.273-3.647.679.549 1.531.891 2.471.891 2.178 0 3.95-1.768 3.95-3.939s-1.772-3.939-3.95-3.939c-.913 0-1.744.323-2.414.844-.137-1.723-.113-3.186.957-4.86 3.076-4.813 10.804-5.129 13.343-5.232 7.058-.287 12.494 2.801 15.115 4.668.311.221.718.248 1.054.066.335-.181.539-.535.525-.915-.669-19.318-2.346-21.073-4.005-21.214-1.503-.139-3.273 1.018-6.623 15.918-.356-.075-.724-.137-1.093-.198 3.95-20.198 6.779-21.283 7.329-21.283h.007c.896.013 4.116 2.18 7.938 29.536.111.797.277 1.63.509 2.549.928 3.667 1.473 7.37 1.621 11.006.193 4.781-.318 8.38-.77 11.555-.638 4.481-1.188 8.353.743 13.314 1.205 3.095 2.981 5.659 4.699 8.139 2.301 3.321 4.962 6.414 7.911 9.192.193.183.439.272.686.272.266 0 .531-.105.728-.314.377-.403.359-1.036-.044-1.414zm-55.857-31.104c.455.445 1.023.766 1.652.948-.075.87-.102 1.745-.025 2.617.025.285.06.568.101.851-.122-.137-.251-.263-.365-.416-.993-1.33-1.296-2.804-1.363-4zm-5.958-44.17c-.226.615-.537 1.181-.903 1.692-.49-.449-1.114-.735-1.787-.796-.239-.022-.472-.006-.7.028.563-2.437 1.021-5.169 1.353-8.1 2.184 1.153 3.109 4.252 2.037 7.176zm-23.121-26.044c2.174 2.881 4.553 5.612 7.099 8.156-1.578-.271-2.901-.049-2.987-.034-.544.096-.907.614-.811 1.158s.614.908 1.158.811c.024-.003 2.574-.412 4.32.82.176.124.377.184.576.184.22 0 .421-.096.598-.233 2.884 2.601 5.972 4.983 9.212 7.123-.757 7.177-2.332 13.327-4.248 16.525-2.605 4.354-9.982 11.264-18.678 11.264-8.697 0-16.074-6.909-18.681-11.264-1.926-3.215-3.508-9.414-4.26-16.641 3.693-3.562 7.086-7.471 10.076-11.635 2.427-3.381 4.615-6.959 6.526-10.665.876 2.784 2.063 5.359 3.541 7.682.624.979 5.426 7.681 6.357 7.832.283.047.584-.035.808-.226s.353-.469.353-.762c0-.059 0-.107-.959-10.095zm1.109 53.701c.001.017-.006.033-.004.05.28 2.236-.354 4.42-1.741 5.991-.938 1.063-2.105 1.696-3.125 1.696-1.021 0-2.188-.634-3.126-1.696-1.387-1.572-2.021-3.755-1.741-5.991.002-.017-.005-.032-.004-.049.002-.025.012-.049.012-.075l-.002-6.504c1.563.408 3.187.651 4.862.651 1.674 0 3.299-.242 4.861-.65l-.002 6.504c-.002.025.008.048.01.073zm-11.732-7.197.003 6.436c-1.835.725-3.656 1.62-5.439 2.651-.966-1.839-1.996-4.147-3.143-7.117-1.375-3.561-2.562-7.237-3.596-10.977 2.547 3.261 6.897 7.071 12.175 9.007zm-.051 8.626c.076 2.221.866 4.324 2.287 5.936 1.331 1.508 3.018 2.373 4.626 2.373s3.294-.865 4.625-2.373c1.426-1.617 2.216-3.727 2.288-5.956 1.039.413 2.067.856 3.059 1.358.463.234.912.497 1.367.751-1.608 2.68-3.078 4.118-4.681 5.215-3.996 2.71-9.369 2.71-13.425-.041-1.544-1.057-2.979-2.457-4.552-5.055 1.448-.839 2.921-1.581 4.406-2.208zm19.224.342c-.478-.267-.95-.543-1.437-.79-1.298-.656-2.646-1.246-4.016-1.757l.003-6.421c5.231-1.919 9.547-5.678 12.103-8.92-1.029 3.712-2.209 7.359-3.573 10.89-1.121 2.904-2.131 5.178-3.08 6.998zm-39.849-51.602c1.898-6.386 7.33-20.865 17.938-22.691 1.463-.251 2.996-.251 4.555.002.218.037.439-.001.632-.105 1.786-.956 3.646-1.579 5.532-1.85 10.417-1.501 19.454 8.022 22.931 12.294l-3.37-.563c-.447-.071-.885.158-1.073.568-.188.409-.08.895.266 1.185.661.554 1.276 1.171 1.828 1.833 3.104 3.724 3.493 8.108 3.681 10.217.406 4.584-.676 8.511-1.831 11.254-3.985-2.675-7.723-5.736-11.122-9.114-3.397-3.374-6.489-7.095-9.19-11.06-.19-.28-.503-.438-.826-.438-.113 0-.229.02-.34.06-.43.155-.699.581-.655 1.036.278 2.904.717 7.475 1.008 10.504-1.118-1.39-2.489-3.184-3.534-4.825-1.803-2.831-3.144-6.07-3.987-9.63-.098-.413-.445-.719-.867-.764-.413-.045-.825.181-1.008.563-2.118 4.443-4.647 8.724-7.518 12.722-2.697 3.757-5.724 7.306-9.013 10.567-.469-1.461-.973-3.11-.898-5.051.112-2.918.763-5.761 1.934-8.45.185-.425.054-.92-.315-1.198-.37-.279-.882-.266-1.238.028zm2.693 15c.332 2.937.791 5.673 1.356 8.114-.244-.042-.494-.065-.752-.042-.659.06-1.274.333-1.76.766-.357-.505-.661-1.061-.882-1.663-1.072-2.925-.148-6.024 2.038-7.175zm15.776 46.862c-3.409-2.334-6.3-5.792-10.166-15.804-2.443-6.327-4.381-12.981-5.759-19.779-.058-.281.008-.564.183-.799.18-.242.446-.39.75-.417.513-.052 1.001.364 1.117.934 1.353 6.64 3.249 13.143 5.638 19.328 1.37 3.547 2.597 6.218 3.761 8.287.003.005.003.01.006.015.002.004.006.006.008.01 1.954 3.466 3.73 5.233 5.703 6.583 4.667 3.163 10.94 3.165 15.676-.047 1.957-1.339 3.74-3.131 5.718-6.685.003-.004.007-.007.009-.011.003-.005.003-.01.005-.015 1.137-2.047 2.339-4.67 3.677-8.137 2.387-6.178 4.284-12.681 5.639-19.328.116-.57.616-.991 1.116-.934.305.027.571.176.751.417.085.115.143.241.174.373.002.007.002.013.004.02.028.132.032.269.004.406-1.376 6.796-3.313 13.451-5.758 19.779-3.867 10.012-6.758 13.47-10.167 15.804-1.705 1.167-3.646 2.096-5.769 2.761-.417.131-.701.517-.701.954v5.151h-5.148v-5.151c0-.438-.284-.823-.701-.954-2.125-.666-4.065-1.594-5.77-2.761zm12.751 22.629c-3.334-4.317-4.35-8.899-4.64-11.764h2.131c.768 3.383 2.778 8.978 8.004 13.518 3.115 2.705 6.409 4.185 9.084 5.006.008.003.016.004.024.007.097.03.191.057.287.085l-1.579 1.543c-2.854-.651-8.872-2.647-13.311-8.395zm19.344 2.499-2.794 2.73c-.192-.046-.376-.088-.578-.142v-19.719c0-.553-.447-1-1-1s-1 .447-1 1v19.079c-2.215-.81-4.75-2.103-7.166-4.202-4.586-3.983-6.482-8.86-7.261-12.008h.323c.553 0 1-.447 1-1v-5.428c2.041-.703 3.922-1.64 5.599-2.788 2.181-1.492 4.155-3.386 6.23-6.794 6.586 5.232 10.211 11.578 11.987 14.698 2.194 3.851 3.903 8.004 5.14 12.342h-2.539c-2.989 0-5.808 1.148-7.941 3.232zm20.859-2.946c.738-1.307 2.131-2.165 3.691-2.165 2.34 0 4.244 1.896 4.244 4.225s-1.904 4.225-4.244 4.225c-.868 0-1.7-.276-2.402-.758.529-.617.861-1.408.861-2.281 0-1.455-.887-2.706-2.15-3.246zm3.691-6.169c4.556 0 8.263 3.691 8.263 8.229s-3.707 8.229-8.263 8.229c-2.723 0-5.22-1.347-6.748-3.513h1.666c.303 0 .592-.05.872-.121 1.144 1.042 2.644 1.629 4.21 1.629 3.443 0 6.244-2.792 6.244-6.225s-2.801-6.225-6.244-6.225c-2.559 0-4.821 1.565-5.768 3.879h-2.145c1.027-3.421 4.239-5.882 7.913-5.882zm-10.101-14.306c0 1.044-.854 1.894-1.904 1.894s-1.903-.85-1.903-1.894.854-1.893 1.903-1.893 1.904.849 1.904 1.893zm27.401-42.274c.5.751 1.565 3.922 2.111 17.226-1.687-1.026-3.929-2.149-6.616-2.938 2.509-11.16 3.977-13.708 4.505-14.288zm-24.398 26.523c1.075 0 1.95.87 1.95 1.939s-.875 1.939-1.95 1.939-1.95-.87-1.95-1.939.875-1.939 1.95-1.939zm-.379-9.951c5.431-23.054 8.524-24.728 9.352-24.695.751.049 3.339 1.775 5.576 21.452-.384-.027-.767-.055-1.162-.064-2.099-14.593-3.734-15.873-5.23-15.873-.004 0-.008 0-.013 0-1.555.007-3.243 1.385-5.294 17.47-1.129.434-2.227.992-3.229 1.71zm11.747-3.277c-1.44.064-3.864.223-6.414.889 1.479-11.247 2.677-14.006 3.195-14.664.468.606 1.678 3.17 3.219 13.775z" fill="#3a322b" data-original="#3a322b"/><path d="m86.806 76.563c0 2.172 1.772 3.939 3.95 3.939s3.95-1.768 3.95-3.939-1.772-3.939-3.95-3.939-3.95 1.767-3.95 3.939zm5.9 0c0 1.069-.875 1.939-1.95 1.939s-1.95-.87-1.95-1.939.875-1.939 1.95-1.939 1.95.87 1.95 1.939z" fill="#3a322b" data-original="#3a322b"/><path d="m103.296 103.556c-.533.146-.848.694-.702 1.228.539 1.979.706 4.015.497 6.051-.115 1.131-.346 2.242-.688 3.32l-.896-1.563c-.201-.353-.589-.547-.998-.495-.402.053-.733.343-.837.735-.334 1.261-.821 2.468-1.45 3.586-1.749 3.114-4.272 4.999-6.081 6.032-.479.273-.646.885-.372 1.364.185.323.521.504.869.504.168 0 .339-.042.495-.132 2.908-1.66 5.271-4.008 6.833-6.789.341-.606.645-1.235.91-1.882l.834 1.455c.186.325.501.514.913.502.374-.017.707-.242.863-.583.85-1.855 1.386-3.824 1.594-5.852.233-2.281.046-4.562-.558-6.779-.143-.533-.694-.851-1.226-.702z" fill="#3a322b" data-original="#3a322b"/></g></g></g></svg>
