<?xml version="1.0"?>
<svg xmlns="http://www.w3.org/2000/svg" xmlns:xlink="http://www.w3.org/1999/xlink" xmlns:svgjs="http://svgjs.com/svgjs" version="1.1" width="512px" height="512px" x="0" y="0" viewBox="0 0 257.8 257.8" style="enable-background:new 0 0 512 512" xml:space="preserve"><g transform="matrix(0.5,0,0,0.5,64.44999694824219,64.45000305771826)">
<path d="M234.2,23.9c24,24,24,63.2,0,87.2L111,234.3c-24,24-63.2,24-87.2,0l0,0c-24-24-24-63.2,0-87.2  L146.6,24.3C171-0.1,209.8-0.1,234.2,23.9L234.2,23.9z" fill="#f3faff" data-original="#f3faff"/>
<path d="M85,85.5l-61.2,61.6c-24,24-24,63.2,0,87.2s63.2,24,87.2,0l61.2-61.2L85,85.5z" fill="#f55557" data-original="#f55557"/>
<g>
	<path d="M257.8,67.5c0-18-7.2-34.8-19.6-47.6C225.4,7.1,208.6,0.3,190.6,0.3S155.8,7.5,143,19.9L19.8,142.7   c-26.4,26.4-26.4,69.2,0,95.2c12.8,12.8,29.6,19.6,47.6,19.6s34.8-7.2,47.6-19.6l61.6-61.6l0,0l0,0l61.6-61.6   C251,102.7,257.8,85.5,257.8,67.5z M107,230.3c-10.4,10.4-24.8,16.4-39.6,16.4s-29.2-6-39.6-16.4c-22-22-22-57.2,0-79.2l57.6-57.6   c0.4,0.4,0.4,0.8,0.8,1.2l78.4,78.4L107,230.3z M172.6,164.7L94.2,86.3c-0.4-0.4-0.8-0.4-1.2-0.8l57.6-57.6   c10.4-10.4,24.8-16.4,39.6-16.4c14.8,0,29.2,6,39.6,16.4s16.4,24.8,16.4,39.6s-6,29.2-16.4,39.6L172.6,164.7z" fill="#30323a" data-original="#30323a"/>
	<path d="M153.8,43.5c-2.4,2.4-2.4,6,0,8c2.4,2.4,6,2.4,8,0c14.8-14.8,39.2-14.8,54.4,0   c1.2,1.2,2.4,1.6,4,1.6s2.8-0.4,4-1.6c2.4-2.4,2.4-6,0-8C204.6,24.3,173,24.3,153.8,43.5z" fill="#30323a" data-original="#30323a"/>
</g>
<g>
</g>
<g>
</g>
<g>
</g>
<g>
</g>
<g>
</g>
<g>
</g>
<g>
</g>
<g>
</g>
<g>
</g>
<g>
</g>
<g>
</g>
<g>
</g>
<g>
</g>
<g>
</g>
<g>
</g>
</g></svg>
