<svg id="icons" height="512" viewBox="0 0 64 64" width="512" xmlns="http://www.w3.org/2000/svg"><path d="m58 45v10h-4-40v-6-4h10 24z" fill="#e6e9ed"/><path d="m48 42v3h-24v-3a11.96092 11.96092 0 0 1 3.48-8.45 4.98335 4.98335 0 0 0 3.52 1.45 5 5 0 0 0 10 0 4.98335 4.98335 0 0 0 3.52-1.45 11.96092 11.96092 0 0 1 3.48 8.45z" fill="#f7c292"/><path d="m54 55v4h-4-40v-5.99-4.01h4v6z" fill="#ccd1d9"/><path d="m36 30a5.00182 5.00182 0 0 0 5 5 5 5 0 0 1 -10 0 5.00182 5.00182 0 0 0 5-5z" fill="#ed5565"/><path d="m50 59v4h-44v-9.99h3.99.01v5.99z" fill="#e6e9ed"/><path d="m58 1v44h-10v-3a11.96092 11.96092 0 0 0 -3.48-8.45 4.9855 4.9855 0 0 0 1.48-3.55v-4a2 2 0 0 0 4 0v-5a10 10 0 0 0 -11.99-9.8h-.01a10.1 10.1 0 0 0 -4 0h-.01a10 10 0 0 0 -11.99 9.8v5a2 2 0 0 0 4 0v4a4.9855 4.9855 0 0 0 1.48 3.55 11.96092 11.96092 0 0 0 -3.48 8.45v3h-10v-44z" fill="#5d9cec"/><path d="m50 21v5a2 2 0 0 1 -4 0v-5a10.01674 10.01674 0 0 0 -7.99-9.8 10 10 0 0 1 11.99 9.8z" fill="#965353"/><path d="m10 49v4.01h-.01-3.99v-44.01h4z" fill="#5d9cec"/><path d="m32 11a10.09909 10.09909 0 0 1 1.99.2 10.01674 10.01674 0 0 0 -7.99 9.8v5a2 2 0 0 1 -4 0v-5a10.00365 10.00365 0 0 1 10-10z" fill="#965353"/><path d="m14 45v4h-4v-40-4h4z" fill="#4a89dc"/><path d="m34 28h4a2 2 0 0 1 -4 0z" fill="#ed5565"/><path d="m46 26v4a5 5 0 0 1 -10 0 2.00588 2.00588 0 0 0 2-2h-4a2.00588 2.00588 0 0 0 2 2 5 5 0 0 1 -10 0v-9a10.01674 10.01674 0 0 1 7.99-9.8h.01a10.1 10.1 0 0 1 4 0h.01a10.01674 10.01674 0 0 1 7.99 9.8z" fill="#ffd2a6"/><path d="m58.00391 46h-44a.99942.99942 0 0 1 -1-1v-44a.99942.99942 0 0 1 1-1h44a.99943.99943 0 0 1 1 1v44a.99943.99943 0 0 1 -1 1zm-43-2h42v-42h-42z"/><path d="m14.00391 56a.99942.99942 0 0 1 -1-1v-10a1 1 0 0 1 2 0v10a.99943.99943 0 0 1 -1 1z"/><path d="m58.00391 56a.99942.99942 0 0 1 -1-1v-10a1 1 0 0 1 2 0v10a.99943.99943 0 0 1 -1 1z"/><path d="m58.00391 56h-44a1 1 0 0 1 0-2h44a1 1 0 0 1 0 2z"/><path d="m50.00391 64h-44a.99942.99942 0 0 1 -1-1v-54a.99942.99942 0 0 1 1-1h3.999a1 1 0 0 1 0 2h-2.999v52h42v-3a1 1 0 0 1 2 0v4a.99943.99943 0 0 1 -1 1z"/><path d="m54.00391 60h-44a.99942.99942 0 0 1 -1-1v-54a.99942.99942 0 0 1 1-1h3.999a1 1 0 0 1 0 2h-2.999v52h42v-3a1 1 0 0 1 2 0v4a.99943.99943 0 0 1 -1 1z"/><path d="m45.00391 51h-18a1 1 0 0 1 0-2h18a1 1 0 0 1 0 2z"/><path d="m13.99805 50.00391h-3.99805a1 1 0 0 1 0-2h3.998a1 1 0 0 1 0 2z"/><path d="m9.99414 54.00781h-3.998a1 1 0 0 1 0-2h3.998a1 1 0 1 1 0 2z"/><path d="m46 22a.99943.99943 0 0 1 -1-1 9 9 0 0 0 -18 0 1 1 0 0 1 -2 0 11 11 0 0 1 22 0 .99943.99943 0 0 1 -1 1z"/><path d="m48 43a.99943.99943 0 0 1 -1-1 10.93429 10.93429 0 0 0 -3.18945-7.74609.9999.9999 0 1 1 1.41992-1.40821 12.92453 12.92453 0 0 1 3.76953 9.1543.99943.99943 0 0 1 -1 1z"/><path d="m24 43a.99943.99943 0 0 1 -1-1 12.92453 12.92453 0 0 1 3.76953-9.1543.9999.9999 0 1 1 1.41992 1.40821 10.93429 10.93429 0 0 0 -3.18945 7.74609.99943.99943 0 0 1 -1 1z"/><path d="m22 22a.99943.99943 0 0 1 -1-1 11.01245 11.01245 0 0 1 11-11 11.14418 11.14418 0 0 1 2.19824.21973 1.00031 1.00031 0 1 1 -.39648 1.96093 9.00684 9.00684 0 0 0 -10.80176 8.81934.99943.99943 0 0 1 -1 1z"/><path d="m50 22a.99943.99943 0 0 1 -1-1 9.00684 9.00684 0 0 0 -10.80176-8.81934 1.00031 1.00031 0 1 1 -.39648-1.96093 11.14418 11.14418 0 0 1 2.19824-.21973 11.01245 11.01245 0 0 1 11 11 .99943.99943 0 0 1 -1 1z"/><path d="m31 36a6.00657 6.00657 0 0 1 -6-6 1 1 0 0 1 2 0 4 4 0 0 0 8 0 1 1 0 0 1 2 0 6.00657 6.00657 0 0 1 -6 6z"/><path d="m41 36a6.00657 6.00657 0 0 1 -6-6 1 1 0 0 1 2 0 4 4 0 0 0 8 0 1 1 0 0 1 2 0 6.00657 6.00657 0 0 1 -6 6z"/><path d="m36 41a6.00657 6.00657 0 0 1 -6-6 1 1 0 0 1 2 0 4 4 0 0 0 8 0 1 1 0 0 1 2 0 6.00657 6.00657 0 0 1 -6 6z"/><path d="m26 31a.99943.99943 0 0 1 -1-1v-9a1 1 0 0 1 2 0v9a.99943.99943 0 0 1 -1 1z"/><path d="m46 31a.99943.99943 0 0 1 -1-1v-9a1 1 0 0 1 2 0v9a.99943.99943 0 0 1 -1 1z"/><path d="m36 36a.99943.99943 0 0 1 -1-1v-5a1 1 0 0 1 2 0v5a.99943.99943 0 0 1 -1 1z"/><path d="m24 29a3.00328 3.00328 0 0 1 -3-3 1 1 0 0 1 2 0 1 1 0 0 0 2 0 1 1 0 0 1 2 0 3.00328 3.00328 0 0 1 -3 3z"/><path d="m48 29a3.00328 3.00328 0 0 1 -3-3 1 1 0 0 1 2 0 1 1 0 0 0 2 0 1 1 0 0 1 2 0 3.00328 3.00328 0 0 1 -3 3z"/><path d="m50 27a.99943.99943 0 0 1 -1-1v-5a1 1 0 0 1 2 0v5a.99943.99943 0 0 1 -1 1z"/><path d="m22 27a.99943.99943 0 0 1 -1-1v-5a1 1 0 0 1 2 0v5a.99943.99943 0 0 1 -1 1z"/><path d="m36 31a3.00328 3.00328 0 0 1 -3-3 1 1 0 0 1 2 0 1 1 0 0 0 2 0 1 1 0 0 1 2 0 3.00328 3.00328 0 0 1 -3 3z"/><path d="m34 24a.99943.99943 0 0 1 -1-1 1 1 0 0 0 -2 0 1 1 0 0 1 -2 0 3 3 0 0 1 6 0 .99943.99943 0 0 1 -1 1z"/><path d="m42 24a.99943.99943 0 0 1 -1-1 1 1 0 0 0 -2 0 1 1 0 0 1 -2 0 3 3 0 0 1 6 0 .99943.99943 0 0 1 -1 1z"/><path d="m38 29h-4a1 1 0 0 1 0-2h4a1 1 0 0 1 0 2z"/><path d="m24 46a.99943.99943 0 0 1 -1-1v-3a1 1 0 0 1 2 0v3a.99943.99943 0 0 1 -1 1z"/><path d="m48 46a.99943.99943 0 0 1 -1-1v-3a1 1 0 0 1 2 0v3a.99943.99943 0 0 1 -1 1z"/></svg>