<?xml version="1.0"?>
<svg xmlns="http://www.w3.org/2000/svg" xmlns:xlink="http://www.w3.org/1999/xlink" xmlns:svgjs="http://svgjs.com/svgjs" version="1.1" width="512px" height="512px" x="0" y="0" viewBox="0 0 256 256" style="enable-background:new 0 0 512 512" xml:space="preserve"><g transform="matrix(0.5099999999999999,0,0,0.5099999999999999,62.719992523193355,62.72000000000004)"><g><g><g><path d="m177.409 252h-160c-5.523 0-10-4.477-10-10v-194.5c0-5.523 4.477-10 10-10h160c5.523 0 10 4.477 10 10v194.5c0 5.523-4.477 10-10 10z" fill="#6bdddd" data-original="#6bdddd"/></g></g><g><g><path d="m22.409 232v-174.5c0-2.761 2.239-5 5-5h140c2.761 0 5 2.239 5 5v174.5c0 2.761-2.239 5-5 5h-140c-2.761 0-5-2.239-5-5z" fill="#e0ebfc" data-original="#e0ebfc"/></g></g><g><g><path d="m91.808 181.482c3.359 2.648 7.988 2.643 11.341-.012l40.881-32.365c11.523-9.084 15.573-25.262 9.785-39.091-6.283-15.014-22.249-22.804-37.279-18.19-8.587 2.636-15.396 8.89-19.154 16.855-3.757-7.965-10.566-14.219-19.153-16.855-15.793-4.848-32.618 3.999-38.16 20.531-4.547 13.565.399 28.657 11.371 37.306z" fill="#f9a7a7" data-original="#f9a7a7"/></g></g><g><g><path d="m177.409 254h-160c-6.617 0-12-5.383-12-12v-194.5c0-6.617 5.383-12 12-12h160c6.617 0 12 5.383 12 12v194.5c0 6.617-5.383 12-12 12zm-160-214.5c-4.411 0-8 3.589-8 8v194.5c0 4.411 3.589 8 8 8h160c4.411 0 8-3.589 8-8v-194.5c0-4.411-3.589-8-8-8z" fill="#3762cc" data-original="#3762cc"/></g></g><g><g><path d="m167.409 239h-140c-3.86 0-7-3.14-7-7v-174.5c0-3.86 3.14-7 7-7h140c3.86 0 7 3.14 7 7v174.5c0 3.86-3.14 7-7 7zm-140-184.5c-1.654 0-3 1.346-3 3v174.5c0 1.654 1.346 3 3 3h140c1.654 0 3-1.346 3-3v-174.5c0-1.654-1.346-3-3-3z" fill="#3762cc" data-original="#3762cc"/></g></g><g><g><path d="m118.887 35.5h-42.956v-18.5c0-7.18 5.82-13 13-13h16.956c7.18 0 13 5.82 13 13z" fill="#4671c6" data-original="#4671c6"/></g></g><g><g><path d="m118.887 37.5h-42.956c-1.104 0-2-.896-2-2v-18.5c0-8.271 6.729-15 15-15h16.956c8.271 0 15 6.729 15 15v18.5c0 1.104-.896 2-2 2zm-40.956-4h38.956v-16.5c0-6.065-4.935-11-11-11h-16.956c-6.065 0-11 4.935-11 11z" fill="#3762cc" data-original="#3762cc"/></g></g><g><g><path d="m143.201 24.5h-91.584c-3.705 0-6.708 3.003-6.708 6.708v24.084c0 3.705 3.003 6.708 6.708 6.708h91.584c3.705 0 6.708-3.003 6.708-6.708v-24.084c0-3.705-3.003-6.708-6.708-6.708z" fill="#4671c6" data-original="#4671c6"/></g></g><g><g><path d="m143.201 64h-91.584c-4.802 0-8.708-3.906-8.708-8.708v-24.084c0-4.802 3.906-8.708 8.708-8.708h91.583c4.802 0 8.708 3.906 8.708 8.708v24.084c.001 4.802-3.906 8.708-8.707 8.708zm-91.584-37.5c-2.596 0-4.708 2.112-4.708 4.708v24.084c0 2.596 2.112 4.708 4.708 4.708h91.583c2.596 0 4.708-2.112 4.708-4.708v-24.084c0-2.596-2.112-4.708-4.708-4.708z" fill="#3762cc" data-original="#3762cc"/></g></g><g><g><g><path d="m120.164 203.96c-.081 0-.162-.003-.244-.008-1.542-.107-2.832-1.213-3.172-2.721l-6.075-26.914-5.836 8.625c-.768 1.134-2.125 1.718-3.477 1.49-1.351-.226-2.446-1.22-2.802-2.542l-7.418-27.559-12.427 35.675c-.459 1.318-1.658 2.238-3.05 2.339-1.393.1-2.711-.633-3.358-1.871l-11.135-21.328h-25.843c-1.933 0-3.5-1.567-3.5-3.5s1.567-3.5 3.5-3.5h27.964c1.304 0 2.499.725 3.103 1.88l8.373 16.035 13.499-38.753c.505-1.45 1.909-2.397 3.432-2.346 1.535.055 2.854 1.105 3.253 2.588l8.379 31.13 6.08-8.985c.782-1.156 2.176-1.737 3.548-1.478 1.371.259 2.458 1.307 2.765 2.669l5.284 23.41 9.079-24.093c.514-1.363 1.818-2.266 3.275-2.266h16.967c1.933 0 3.5 1.567 3.5 3.5s-1.567 3.5-3.5 3.5h-14.546l-12.343 32.755c-.518 1.373-1.828 2.268-3.275 2.268z" fill="#f9cfcf" data-original="#f9cfcf"/></g></g></g><g><g><g><path d="m231.924 165.333c-2.209 0-4 1.791-4 4v66.667c0 4.411-3.589 8-8 8h-35.052c-4.411 0-8-3.589-8-8v-79h-8v79c0 8.823 7.178 16 16 16h35.052c8.822 0 16-7.177 16-16v-66.667c0-2.209-1.791-4-4-4z" fill="#4671c6" data-original="#4671c6"/></g></g><g><g><circle cx="231.924" cy="157" fill="#a4c9ff" r="16.667" data-original="#a4c9ff"/></g></g><g><g><path d="m231.924 164.667c-4.228 0-7.667-3.439-7.667-7.667 0-4.227 3.439-7.667 7.667-7.667s7.667 3.439 7.667 7.667-3.439 7.667-7.667 7.667z" fill="#e0ebfc" data-original="#e0ebfc"/></g></g><g><g><g><g><path d="m143.783 78.703h6.266c2.225 0 4.028 1.803 4.028 4.028 0 2.224-1.803 4.028-4.028 4.028h-6.266c-1.48 0-2.685 1.205-2.685 2.685v33.81c0 17.52 14.254 31.774 31.775 31.774s31.774-14.254 31.774-31.774v-33.81c0-1.481-1.205-2.685-2.685-2.685h-6.264c-2.225 0-4.028-1.803-4.028-4.028 0-2.224 1.803-4.028 4.028-4.028h6.264c5.922 0 10.741 4.818 10.741 10.741v33.81c0 21.962-17.868 39.83-39.829 39.83-21.962 0-39.83-17.868-39.83-39.83v-33.81c-.001-5.922 4.817-10.741 10.739-10.741z" fill="#a4c9ff" data-original="#a4c9ff"/></g></g></g><g><g><g><path d="m172.873 165.083c-23.065 0-41.831-18.765-41.831-41.83v-33.81c0-7.025 5.715-12.74 12.741-12.74h6.266c3.324 0 6.027 2.704 6.027 6.027s-2.704 6.028-6.027 6.028h-6.266c-.378 0-.685.307-.685.685v33.81c0 16.417 13.357 29.774 29.775 29.774 16.417 0 29.773-13.357 29.773-29.774v-33.81c0-.378-.307-.685-.685-.685h-6.265c-3.324 0-6.028-2.704-6.028-6.028s2.704-6.027 6.028-6.027h6.265c7.025 0 12.741 5.715 12.741 12.74v33.81c0 23.065-18.764 41.83-41.829 41.83zm-29.09-84.379c-4.82 0-8.741 3.921-8.741 8.74v33.81c0 20.859 16.971 37.83 37.831 37.83 20.859 0 37.829-16.971 37.829-37.83v-33.81c0-4.819-3.921-8.74-8.741-8.74h-6.265c-1.118 0-2.028.91-2.028 2.027 0 1.118.91 2.028 2.028 2.028h6.265c2.583 0 4.685 2.102 4.685 4.685v33.81c0 18.623-15.151 33.774-33.773 33.774-18.624 0-33.775-15.151-33.775-33.774v-33.81c0-2.583 2.102-4.685 4.685-4.685h6.266c1.118 0 2.027-.91 2.027-2.028s-.91-2.027-2.027-2.027z" fill="#3762cc" data-original="#3762cc"/></g></g></g><g><g><path d="m187.249 76.755h10.015c1.427 0 2.584 1.157 2.584 2.584v6.784c0 1.427-1.157 2.584-2.584 2.584h-10.015c-1.427 0-2.584-1.157-2.584-2.584v-6.784c-.001-1.427 1.156-2.584 2.584-2.584z" fill="#4671c6" data-original="#4671c6"/></g></g><g><g><path d="m148.482 76.755h10.015c1.427 0 2.584 1.157 2.584 2.584v6.784c0 1.427-1.157 2.584-2.584 2.584h-10.015c-1.427 0-2.584-1.157-2.584-2.584v-6.784c-.001-1.427 1.156-2.584 2.584-2.584z" fill="#4671c6" data-original="#4671c6"/></g></g><g><g><path d="m197.263 90.708h-10.015c-2.528 0-4.584-2.057-4.584-4.584v-6.784c0-2.528 2.057-4.584 4.584-4.584h10.015c2.528 0 4.584 2.057 4.584 4.584v6.784c.001 2.527-2.056 4.584-4.584 4.584zm-10.014-11.954c-.322 0-.584.262-.584.584v6.784c0 .322.262.584.584.584h10.015c.322 0 .584-.262.584-.584v-6.784c0-.322-.262-.584-.584-.584z" fill="#3762cc" data-original="#3762cc"/></g></g><g><g><path d="m158.497 90.708h-10.015c-2.528 0-4.584-2.057-4.584-4.584v-6.784c0-2.528 2.057-4.584 4.584-4.584h10.015c2.528 0 4.584 2.057 4.584 4.584v6.784c0 2.527-2.057 4.584-4.584 4.584zm-10.016-11.954c-.322 0-.584.262-.584.584v6.784c0 .322.262.584.584.584h10.015c.322 0 .584-.262.584-.584v-6.784c0-.322-.262-.584-.584-.584z" fill="#3762cc" data-original="#3762cc"/></g></g></g><g><g><path d="m231.924 175.667c-10.293 0-18.667-8.374-18.667-18.667s8.374-18.667 18.667-18.667 18.667 8.374 18.667 18.667-8.374 18.667-18.667 18.667zm0-33.334c-8.087 0-14.667 6.58-14.667 14.667s6.58 14.667 14.667 14.667 14.667-6.58 14.667-14.667-6.58-14.667-14.667-14.667z" fill="#3762cc" data-original="#3762cc"/></g></g><g><g><path d="m231.924 166.667c-5.33 0-9.667-4.336-9.667-9.667 0-5.33 4.336-9.667 9.667-9.667s9.667 4.336 9.667 9.667-4.337 9.667-9.667 9.667zm0-15.334c-3.125 0-5.667 2.542-5.667 5.667s2.542 5.667 5.667 5.667 5.667-2.542 5.667-5.667-2.542-5.667-5.667-5.667z" fill="#3762cc" data-original="#3762cc"/></g></g></g></g></g></svg>
