<?xml version="1.0" encoding="utf-8"?><svg xmlns="http://www.w3.org/2000/svg" xmlns:xlink="http://www.w3.org/1999/xlink" width="197px" height="197px" viewBox="0 0 100 100" preserveAspectRatio="xMidYMid" style="margin-right:-2px;display:block;background-repeat-y:initial;background-repeat-x:initial;background-color:rgba(241, 242, 243, 0);animation-play-state:paused" ><g transform="rotate(0 50 50)" style="transform:matrix(1, 0, 0, 1, 0, 0);animation-play-state:paused" ><rect x="44.5" y="20" rx="5.5" ry="6" width="11" height="12" fill="#848484" opacity="0.111111" style="opacity:0.111111;animation-play-state:paused" ></rect></g>
<g transform="rotate(40 50 50)" style="transform:matrix(0.766044, 0.642788, -0.642788, 0.766044, 43.8372, -20.4416);animation-play-state:paused" ><rect x="44.5" y="20" rx="5.5" ry="6" width="11" height="12" fill="#848484" opacity="0.222223" style="opacity:0.222223;animation-play-state:paused" ></rect></g>
<g transform="rotate(80 50 50)" style="transform:matrix(0.173648, 0.984808, -0.984808, 0.173648, 90.558, -7.9228);animation-play-state:paused" ><rect x="44.5" y="20" rx="5.5" ry="6" width="11" height="12" fill="#848484" opacity="0.333334" style="opacity:0.333334;animation-play-state:paused" ></rect></g>
<g transform="rotate(120 50 50)" style="transform:matrix(-0.5, 0.866025, -0.866025, -0.5, 118.301, 31.6987);animation-play-state:paused" ><rect x="44.5" y="20" rx="5.5" ry="6" width="11" height="12" fill="#848484" opacity="0.444444" style="opacity:0.444444;animation-play-state:paused" ></rect></g>
<g transform="rotate(160 50 50)" style="transform:matrix(-0.939693, 0.34202, -0.34202, -0.939693, 114.086, 79.8836);animation-play-state:paused" ><rect x="44.5" y="20" rx="5.5" ry="6" width="11" height="12" fill="#848484" opacity="0.555556" style="opacity:0.555556;animation-play-state:paused" ></rect></g>
<g transform="rotate(200 50 50)" style="transform:matrix(-0.939693, -0.34202, 0.34202, -0.939693, 79.8836, 114.086);animation-play-state:paused" ><rect x="44.5" y="20" rx="5.5" ry="6" width="11" height="12" fill="#848484" opacity="0.666667" style="opacity:0.666667;animation-play-state:paused" ></rect></g>
<g transform="rotate(240 50 50)" style="transform:matrix(-0.5, -0.866025, 0.866025, -0.5, 31.6987, 118.301);animation-play-state:paused" ><rect x="44.5" y="20" rx="5.5" ry="6" width="11" height="12" fill="#848484" opacity="0.777778" style="opacity:0.777778;animation-play-state:paused" ></rect></g>
<g transform="rotate(280 50 50)" style="transform:matrix(0.173648, -0.984808, 0.984808, 0.173648, -7.9228, 90.558);animation-play-state:paused" ><rect x="44.5" y="20" rx="5.5" ry="6" width="11" height="12" fill="#848484" opacity="0.88889" style="opacity:0.88889;animation-play-state:paused" ></rect></g>
<g transform="rotate(320 50 50)" style="transform:matrix(0.766044, -0.642788, 0.642788, 0.766044, -20.4416, 43.8372);animation-play-state:paused" ><rect x="44.5" y="20" rx="5.5" ry="6" width="11" height="12" fill="#848484" opacity="1" style="animation-play-state:paused" ></rect></g><!-- generated by https://loading.io/ --></svg>